<svg width="216" height="186" xmlns="http://www.w3.org/2000/svg" xmlns:xlink="http://www.w3.org/1999/xlink" overflow="hidden"><defs><clipPath id="clip0"><rect x="313" y="394" width="216" height="186"/></clipPath></defs><g clip-path="url(#clip0)" transform="translate(-313 -394)"><path d="" fill="#24292E" transform="translate(366.803 507)"/><path d="M54.2266 18.5195C51.849 18.5195 49.7005 18.1113 47.7813 17.2949 45.862 16.4785 44.043 15.2539 42.3242 13.6211 38.7435 10.2409 35.306 6.6888 32.0117 2.96484 28.7174-0.759115 25.4375-4.45443 22.1719-8.12109 18.5052-12.2461 15.7266-16.722 13.8359-21.5488 11.9453-26.3757 11-31.5534 11-37.082 11-41.0638 11.5156-44.8952 12.5469-48.5762 13.5781-52.2572 15.0319-55.6947 16.9082-58.8887 18.7845-62.0827 21.0404-64.9974 23.6758-67.6328 26.3112-70.2682 29.2259-72.5241 32.4199-74.4004 35.6139-76.2767 39.0514-77.7305 42.7324-78.7617 46.4134-79.793 50.2448-80.3086 54.2266-80.3086 58.2083-80.3086 62.0397-79.793 65.7207-78.7617 69.4017-77.7305 72.8392-76.2767 76.0332-74.4004 79.2272-72.5241 82.1419-70.2682 84.7773-67.6328 87.4128-64.9974 89.6686-62.0827 91.5449-58.8887 93.4212-55.6947 94.875-52.2572 95.9063-48.5762 96.9375-44.8952 97.4531-41.0638 97.4531-37.082 97.4531-34.4466 97.2096-31.8184 96.7227-29.1973 96.2357-26.5762 95.5267-24.0339 94.5957-21.5703 93.6647-19.1068 92.5117-16.7435 91.1367-14.4805 89.7617-12.2174 88.1719-10.112 86.3672-8.16406L66.3438 13.4492C64.7969 15.1107 62.9492 16.3711 60.8008 17.2305 58.6523 18.0898 56.4609 18.5195 54.2266 18.5195Z" transform="translate(366.803 507)"/><path d="M54.2266-74.1211C57.6354-74.1211 60.9154-73.6771 64.0664-72.7891 67.2174-71.901 70.168-70.6549 72.918-69.0508 75.668-67.4466 78.1745-65.5202 80.4375-63.2715 82.7005-61.0228 84.6341-58.5234 86.2383-55.7734 87.8424-53.0234 89.0885-50.0729 89.9766-46.9219 90.8646-43.7708 91.3086-40.4909 91.3086-37.082 91.3086-32.3268 90.4993-27.901 88.8809-23.8047 87.2624-19.7083 84.8919-15.8841 81.7695-12.332 79.6211-9.86849 77.4297-7.45508 75.1953-5.0918 72.9609-2.72852 70.7266-0.34375 68.4922 2.0625 67.4036 3.26562 66.3223 4.49023 65.248 5.73633 64.1738 6.98242 63.0352 8.14974 61.832 9.23828 60.7435 10.2409 59.569 11.0072 58.3086 11.5371 57.0482 12.0671 55.6875 12.332 54.2266 12.332 52.8516 12.332 51.4837 12.0671 50.123 11.5371 48.7624 11.0072 47.6094 10.2409 46.6641 9.23828L26.6836-12.332C23.5612-15.7122 21.1979-19.5436 19.5938-23.8262 17.9896-28.1087 17.1875-32.5273 17.1875-37.082 17.1875-40.4909 17.6315-43.7708 18.5195-46.9219 19.4076-50.0729 20.6536-53.0234 22.2578-55.7734 23.862-58.5234 25.7884-61.0228 28.0371-63.2715 30.2858-65.5202 32.7852-67.4466 35.5352-69.0508 38.2852-70.6549 41.2357-71.901 44.3867-72.7891 47.5378-73.6771 50.8177-74.1211 54.2266-74.1211Z" fill="#79DB75" transform="translate(366.803 507)"/><path d="M54.2266 3.09375C53.6823 3.09375 53.002 3.03646 52.1855 2.92188 51.3691 2.80729 50.5026 2.63542 49.5859 2.40625 48.6693 2.17708 47.7526 1.88346 46.8359 1.52539 45.9193 1.16732 45.0957 0.759115 44.3652 0.300781 43.6348-0.157552 43.0404-0.680339 42.582-1.26758 42.1237-1.85482 41.8945-2.49219 41.8945-3.17969 41.8945-4.01042 42.1953-4.73372 42.7969-5.34961 43.3984-5.96549 44.1146-6.27344 44.9453-6.27344 45.375-6.27344 45.8978-6.10872 46.5137-5.7793 47.1296-5.44987 47.8314-5.0918 48.6191-4.70508 49.4069-4.31836 50.2663-3.96029 51.1973-3.63086 52.1283-3.30143 53.138-3.13672 54.2266-3.13672 55.2865-3.13672 56.2962-3.30143 57.2559-3.63086 58.2155-3.96029 59.0964-4.31836 59.8984-4.70508 60.7005-5.0918 61.4023-5.44987 62.0039-5.7793 62.6055-6.10872 63.1068-6.27344 63.5078-6.27344 64.3672-6.27344 65.0977-5.95833 65.6992-5.32813 66.3008-4.69792 66.6016-3.96745 66.6016-3.13672 66.6016-2.44922 66.3724-1.81901 65.9141-1.24609 65.4557-0.673177 64.8542-0.157552 64.1094 0.300781 63.3646 0.759115 62.5339 1.16732 61.6172 1.52539 60.7005 1.88346 59.7839 2.17708 58.8672 2.40625 57.9505 2.63542 57.084 2.80729 56.2676 2.92188 55.4512 3.03646 54.7708 3.09375 54.2266 3.09375Z" fill="#008272" transform="translate(366.803 507)"/><path d="M82.0273-40.1758C82.8581-40.1758 83.5814-39.8678 84.1973-39.252 84.8131-38.6361 85.1211-37.9128 85.1211-37.082L85.1211-29.3477C85.1211-26.9987 84.6771-24.793 83.7891-22.7305 82.901-20.668 81.6908-18.8704 80.1582-17.3379 78.6256-15.8053 76.8281-14.5951 74.7656-13.707 72.7031-12.819 70.4974-12.375 68.1484-12.375L60.4141-12.375C59.5547-12.375 58.8242-12.6758 58.2227-13.2773 57.6211-13.8789 57.3203-14.6094 57.3203-15.4688L57.3203-23.1602C57.3203-25.5091 57.7643-27.7148 58.6523-29.7773 59.5404-31.8398 60.7506-33.6445 62.2832-35.1914 63.8158-36.7383 65.6133-37.9557 67.6758-38.8438 69.7383-39.7318 71.944-40.1758 74.293-40.1758ZM34.1602-40.1758C36.5091-40.1758 38.7148-39.7318 40.7773-38.8438 42.8398-37.9557 44.6374-36.7383 46.1699-35.1914 47.7025-33.6445 48.9128-31.8398 49.8008-29.7773 50.6888-27.7148 51.1328-25.5091 51.1328-23.1602L51.1328-15.4688C51.1328-14.6094 50.832-13.8789 50.2305-13.2773 49.6289-12.6758 48.8984-12.375 48.0391-12.375L40.3477-12.375C37.9987-12.375 35.793-12.819 33.7305-13.707 31.668-14.5951 29.8633-15.8053 28.3164-17.3379 26.7695-18.8704 25.5521-20.668 24.6641-22.7305 23.776-24.793 23.332-26.9987 23.332-29.3477L23.332-37.082C23.332-37.9128 23.64-38.6361 24.2559-39.252 24.8717-39.8678 25.5951-40.1758 26.4258-40.1758Z" transform="translate(366.803 507)"/><path d="M31.0664-37.082C31.6966-37.082 32.291-36.9603 32.8496-36.7168 33.4082-36.4733 33.9023-36.1367 34.332-35.707 34.7617-35.2773 35.0983-34.7832 35.3418-34.2246 35.5853-33.666 35.707-33.0716 35.707-32.4414 35.707-31.7826 35.5853-31.1738 35.3418-30.6152 35.0983-30.0566 34.7689-29.5697 34.3535-29.1543 33.9381-28.7389 33.444-28.4095 32.8711-28.166 32.2982-27.9225 31.6966-27.8008 31.0664-27.8008 30.4362-27.8008 29.8418-27.9225 29.2832-28.166 28.7246-28.4095 28.2305-28.7461 27.8008-29.1758 27.3711-29.6055 27.0345-30.0996 26.791-30.6582 26.5475-31.2168 26.4258-31.8112 26.4258-32.4414 26.4258-33.0716 26.5475-33.666 26.791-34.2246 27.0345-34.7832 27.3711-35.2773 27.8008-35.707 28.2305-36.1367 28.7246-36.4733 29.2832-36.7168 29.8418-36.9603 30.4362-37.082 31.0664-37.082ZM71.2422-37.082C71.8724-37.082 72.4668-36.9603 73.0254-36.7168 73.584-36.4733 74.071-36.1367 74.4863-35.707 74.9017-35.2773 75.2311-34.7832 75.4746-34.2246 75.7181-33.666 75.8398-33.0716 75.8398-32.4414 75.8398-31.8112 75.7181-31.2168 75.4746-30.6582 75.2311-30.0996 74.9089-29.6055 74.5078-29.1758 74.1068-28.7461 73.6198-28.4095 73.0469-28.166 72.474-27.9225 71.8724-27.8008 71.2422-27.8008 70.5833-27.8008 69.9746-27.9225 69.416-28.166 68.8574-28.4095 68.3704-28.7389 67.9551-29.1543 67.5397-29.5697 67.2103-30.0566 66.9668-30.6152 66.7233-31.1738 66.6016-31.7826 66.6016-32.4414 66.6016-33.0716 66.7233-33.666 66.9668-34.2246 67.2103-34.7832 67.5469-35.2773 67.9766-35.707 68.4063-36.1367 68.9004-36.4733 69.459-36.7168 70.0176-36.9603 70.612-37.082 71.2422-37.082Z" fill="#FFFFFF" transform="translate(366.803 507)"/></g></svg>