<svg width="216" height="187" xmlns="http://www.w3.org/2000/svg" xmlns:xlink="http://www.w3.org/1999/xlink" overflow="hidden"><defs><clipPath id="clip0"><rect x="940" y="14" width="216" height="187"/></clipPath></defs><g clip-path="url(#clip0)" transform="translate(-940 -14)"><path d="" fill="#333333" transform="translate(993.899 127)"/><path d="M20.2383 3.09375C18.9492 3.09375 17.7461 2.85026 16.6289 2.36328 15.5117 1.8763 14.5378 1.21029 13.707 0.365234 12.8763-0.479818 12.2174-1.46094 11.7305-2.57813 11.2435-3.69531 11-4.89844 11-6.1875L11-12.375C11-13.9219 11.3509-15.3685 12.0527-16.7148 12.7546-18.0612 13.75-19.1641 15.0391-20.0234L24.2773-56.9766C24.793-59.0391 25.6165-60.9297 26.748-62.6484 27.8796-64.3672 29.2402-65.8496 30.8301-67.0957 32.4199-68.3418 34.1888-69.3086 36.1367-69.9961 38.0846-70.6836 40.1185-71.0273 42.2383-71.0273L66.2148-71.0273C68.3346-71.0273 70.3685-70.6836 72.3164-69.9961 74.2643-69.3086 76.0332-68.3418 77.623-67.0957 79.2129-65.8496 80.5736-64.3672 81.7051-62.6484 82.8366-60.9297 83.6602-59.0391 84.1758-56.9766L93.4141-20.0234C94.2734-19.4219 94.9753-18.7702 95.5195-18.0684 96.0638-17.3665 96.4863-16.6074 96.7871-15.791 97.0879-14.9746 97.2884-14.1152 97.3887-13.2129 97.4889-12.3105 97.5391-11.3581 97.5391-10.3555 97.5391-9.66797 97.5247-8.97331 97.4961-8.27148 97.4674-7.56966 97.4531-6.875 97.4531-6.1875 97.4531-4.92708 97.2096-3.73828 96.7227-2.62109 96.2357-1.50391 95.5697-0.522786 94.7246 0.322266 93.8796 1.16732 92.8984 1.84049 91.7813 2.3418 90.6641 2.8431 89.4753 3.09375 88.2148 3.09375Z" transform="translate(993.899 127)"/><path d="M88.2148-15.4688 66.7734-11.8164C65.8854-11.6732 64.9974-11.4941 64.1094-11.2793 63.2214-11.0645 62.3333-10.8568 61.4453-10.6563 60.5573-10.4557 59.6621-10.291 58.7598-10.1621 57.8574-10.0332 56.9622-9.96875 56.0742-9.96875 55.0716-9.96875 54.069-10.0332 53.0664-10.1621 52.0638-10.291 51.0684-10.4557 50.0801-10.6563 49.0918-10.8568 48.0964-11.0645 47.0938-11.2793 46.0911-11.4941 45.1029-11.6732 44.1289-11.8164L20.2383-15.4688 30.25-55.5156C30.5938-56.8906 31.1452-58.151 31.9043-59.2969 32.6634-60.4427 33.5729-61.431 34.6328-62.2617 35.6927-63.0924 36.8672-63.737 38.1563-64.1953 39.4453-64.6536 40.806-64.8828 42.2383-64.8828L66.2148-64.8828C67.6185-64.8828 68.972-64.6536 70.2754-64.1953 71.5788-63.737 72.7604-63.0924 73.8203-62.2617 74.8802-61.431 75.7897-60.4427 76.5488-59.2969 77.3079-58.151 77.8594-56.8906 78.2031-55.5156Z" fill="#E81224" transform="translate(993.899 127)"/><path d="M64.1523-15.4688 53.7539-10.3125 44.3008-15.4688C44.3294-15.6979 44.3509-15.9414 44.3652-16.1992 44.3796-16.457 44.3867-16.7005 44.3867-16.9297 44.3867-18.8203 44.0501-20.625 43.377-22.3438 42.7038-24.0625 41.7799-25.6094 40.6055-26.9844 39.431-28.3594 38.0488-29.5195 36.459-30.4648 34.8691-31.4102 33.1576-32.0547 31.3242-32.3984 33.2148-32.7995 34.9551-33.487 36.5449-34.4609 38.1348-35.4349 39.5098-36.6165 40.6699-38.0059 41.8301-39.3952 42.7324-40.9564 43.377-42.6895 44.0215-44.4225 44.3438-46.263 44.3438-48.2109 44.3438-48.6406 44.3223-49.0703 44.2793-49.5 44.2363-49.9297 44.1862-50.3594 44.1289-50.7891 45.5898-49.7292 47.1868-48.9199 48.9199-48.3613 50.653-47.8027 52.4219-47.5234 54.2266-47.5234 56.0313-47.5234 57.8001-47.8027 59.5332-48.3613 61.2663-48.9199 62.8633-49.7292 64.3242-50.7891 64.2669-50.3594 64.2168-49.9297 64.1738-49.5 64.1309-49.0703 64.1094-48.6406 64.1094-48.2109 64.1094-46.2917 64.4316-44.4655 65.0762-42.7324 65.7207-40.9993 66.623-39.431 67.7832-38.0273 68.9434-36.6237 70.3112-35.4421 71.8867-34.4824 73.4622-33.5228 75.1953-32.8568 77.0859-32.4844 75.2526-32.1406 73.5482-31.4818 71.9727-30.5078 70.3971-29.5339 69.0221-28.3522 67.8477-26.9629 66.6732-25.5736 65.7493-24.0124 65.0762-22.2793 64.403-20.5462 64.0664-18.763 64.0664-16.9297 64.0664-16.7005 64.0736-16.457 64.0879-16.1992 64.1022-15.9414 64.1237-15.6979 64.1523-15.4688Z" fill="#EF6950" transform="translate(993.899 127)"/><path d="M88.2148-15.4688C89.0456-15.4687 89.7617-15.1608 90.3633-14.5449 90.9648-13.929 91.2656-13.2057 91.2656-12.375L91.2656-6.1875C91.2656-5.35677 90.9648-4.63346 90.3633-4.01758 89.7617-3.40169 89.0456-3.09375 88.2148-3.09375L20.2383-3.09375C19.4076-3.09375 18.6842-3.40169 18.0684-4.01758 17.4525-4.63346 17.1445-5.35677 17.1445-6.1875L17.1445-12.375C17.1445-13.2057 17.4525-13.929 18.0684-14.5449 18.6842-15.1608 19.4076-15.4687 20.2383-15.4688Z" fill="#CCCCCC" transform="translate(993.899 127)"/></g></svg>