<svg width="228" height="187" xmlns="http://www.w3.org/2000/svg" xmlns:xlink="http://www.w3.org/1999/xlink" overflow="hidden"><defs><clipPath id="clip0"><rect x="260" y="147" width="228" height="187"/></clipPath></defs><g clip-path="url(#clip0)" transform="translate(-260 -147)"><path d="" fill="#333333" transform="translate(313.478 260)"/><path d="M85.1211 18.5195 85.1211 9.23828 75.8398 9.23828 75.8398 0 66.6016 0 66.6016-9.28125 60.9297-9.28125 50.4453-19.7656C47.6953-18.9635 44.8451-18.5625 41.8945-18.5625 37.6263-18.5625 33.623-19.3717 29.8848-20.9902 26.1465-22.6087 22.8737-24.8145 20.0664-27.6074 17.2591-30.4004 15.0462-33.666 13.4277-37.4043 11.8092-41.1426 11-45.1458 11-49.4141 11-52.25 11.3652-54.9857 12.0957-57.6211 12.8262-60.2565 13.8646-62.7201 15.2109-65.0117 16.5573-67.3034 18.1686-69.3874 20.0449-71.2637 21.9212-73.14 24.0052-74.7513 26.2969-76.0977 28.5885-77.444 31.0521-78.4824 33.6875-79.2129 36.3229-79.9434 39.0586-80.3086 41.8945-80.3086 44.7305-80.3086 47.459-79.9362 50.0801-79.1914 52.7012-78.4466 55.1575-77.4082 57.4492-76.0762 59.7409-74.7441 61.8249-73.1328 63.7012-71.2422 65.5775-69.3516 67.1888-67.2676 68.5352-64.9902 69.8815-62.7129 70.9199-60.2565 71.6504-57.6211 72.3809-54.9857 72.7461-52.25 72.7461-49.4141 72.7461-46.4635 72.345-43.6133 71.543-40.8633L109.828-2.57813 109.828 18.5195Z" transform="translate(313.478 260)"/><path d="M64.4102-39.2734C70.9987-32.7135 77.5443-26.1751 84.0469-19.6582 90.5495-13.1413 97.0807-6.58854 103.641 0L103.641 6.1875 100.504 5.71484 103.641 12.332 91.3086 12.332 91.3086 3.05078 82.0273 3.05078 82.0273-6.1875 72.7461-6.1875 72.7461-15.4688 63.5078-15.4688 52.0352-26.8984C50.431-26.1536 48.7767-25.6022 47.0723-25.2441 45.3678-24.8861 43.6419-24.707 41.8945-24.707 38.4857-24.707 35.2845-25.3587 32.291-26.6621 29.2975-27.9655 26.6836-29.7344 24.4492-31.9688 22.2148-34.2031 20.446-36.8171 19.1426-39.8105 17.8392-42.804 17.1875-46.0052 17.1875-49.4141 17.1875-52.8229 17.832-56.0312 19.1211-59.0391 20.4102-62.0469 22.1719-64.668 24.4063-66.9023 26.6406-69.1367 29.2617-70.8984 32.2695-72.1875 35.2773-73.4766 38.4857-74.1211 41.8945-74.1211 45.2747-74.1211 48.4688-73.4694 51.4766-72.166 54.4844-70.8626 57.1055-69.0938 59.3398-66.8594 61.5742-64.625 63.3431-62.0039 64.6465-58.9961 65.9499-55.9883 66.6016-52.7943 66.6016-49.4141 66.6016-47.6667 66.4154-45.9408 66.043-44.2363 65.6706-42.5319 65.1263-40.8776 64.4102-39.2734ZM35.707-49.4141C36.5664-49.4141 37.3685-49.5788 38.1133-49.9082 38.8581-50.2376 39.5098-50.6816 40.0684-51.2402 40.627-51.7988 41.071-52.4505 41.4004-53.1953 41.7298-53.9401 41.8945-54.7422 41.8945-55.6016 41.8945-56.4609 41.7298-57.263 41.4004-58.0078 41.071-58.7526 40.627-59.4043 40.0684-59.9629 39.5098-60.5215 38.8581-60.9655 38.1133-61.2949 37.3685-61.6243 36.5664-61.7891 35.707-61.7891 34.8477-61.7891 34.0456-61.6243 33.3008-61.2949 32.556-60.9655 31.9043-60.5215 31.3457-59.9629 30.7871-59.4043 30.3431-58.7526 30.0137-58.0078 29.6842-57.263 29.5195-56.4609 29.5195-55.6016 29.5195-54.7422 29.6842-53.9401 30.0137-53.1953 30.3431-52.4505 30.7871-51.7988 31.3457-51.2402 31.9043-50.6816 32.556-50.2376 33.3008-49.9082 34.0456-49.5788 34.8477-49.4141 35.707-49.4141Z" fill="#EBA300" transform="translate(313.478 260)"/><path d="M62.1758-35.3203 103.641 6.14453 103.641 12.332 59.3398-31.9688C60.3711-33 61.3164-34.1172 62.1758-35.3203Z" fill="#D48C00" transform="translate(313.478 260)"/><path d="M35.707-49.4141C34.8477-49.4141 34.0456-49.5788 33.3008-49.9082 32.556-50.2376 31.9043-50.6816 31.3457-51.2402 30.7871-51.7988 30.3431-52.4505 30.0137-53.1953 29.6842-53.9401 29.5195-54.7422 29.5195-55.6016 29.5195-56.4609 29.6842-57.263 30.0137-58.0078 30.3431-58.7526 30.7871-59.4043 31.3457-59.9629 31.9043-60.5215 32.556-60.9655 33.3008-61.2949 34.0456-61.6243 34.8477-61.7891 35.707-61.7891 36.5664-61.7891 37.3685-61.6243 38.1133-61.2949 38.8581-60.9655 39.5098-60.5215 40.0684-59.9629 40.627-59.4043 41.071-58.7526 41.4004-58.0078 41.7298-57.263 41.8945-56.4609 41.8945-55.6016 41.8945-54.7422 41.7298-53.9401 41.4004-53.1953 41.071-52.4505 40.627-51.7988 40.0684-51.2402 39.5098-50.6816 38.8581-50.2376 38.1133-49.9082 37.3685-49.5788 36.5664-49.4141 35.707-49.4141Z" transform="translate(313.478 260)"/></g></svg>