<svg width="228" height="187" xmlns="http://www.w3.org/2000/svg" xmlns:xlink="http://www.w3.org/1999/xlink" overflow="hidden"><defs><clipPath id="clip0"><rect x="469" y="280" width="228" height="187"/></clipPath></defs><g clip-path="url(#clip0)" transform="translate(-469 -280)"><path d="" fill="#24292E" transform="translate(522.89 393)"/><path d="M11 18.5195 11 6.70313 36.2227-18.5195 20.7969-33.9883 31.7109-44.9023C33.1719-46.3633 34.8405-47.4805 36.7168-48.2539 38.5931-49.0273 40.5625-49.4141 42.625-49.4141 45.2318-49.4141 47.6523-48.8125 49.8867-47.6094L60.9297-58.6953C60.5859-59.8411 60.4141-61.0443 60.4141-62.3047 60.4141-63.9661 60.722-65.5345 61.3379-67.0098 61.9538-68.485 62.849-69.8242 64.0234-71.0273L72.7461-79.793 109.313-43.2266 100.547-34.5039C99.3437-33.3294 98.0045-32.4342 96.5293-31.8184 95.054-31.2025 93.4857-30.8945 91.8242-30.8945 90.5638-30.8945 89.3607-31.0664 88.2148-31.4102L77.1289-20.3672C77.7018-19.25 78.1458-18.0827 78.4609-16.8652 78.776-15.6478 78.9336-14.3945 78.9336-13.1055 78.9336-11.043 78.5469-9.07357 77.7734-7.19727 77-5.32096 75.8828-3.65234 74.4219-2.19141L63.5078 8.72266 48.0391-6.70313 22.8164 18.5195Z" transform="translate(522.89 393)"/><path d="M64.0234-15.9414 46.1055-35.1484 72.7461-61.7891 91.3086-43.2266Z" fill="#DA3B01" transform="translate(522.89 393)"/><path d="M51.7773-21.4844 51.1328-18.5195 20.2813 12.332 17.1875 12.332 17.1875 9.23828 48.0391-21.6133Z" fill="#E5E5E5" transform="translate(522.89 393)"/><path d="M42.625-43.2695C43.8568-43.2695 45.0456-43.026 46.1914-42.5391 47.3372-42.0521 48.3398-41.3789 49.1992-40.5195L70.0391-19.6797C70.8984-18.8203 71.5716-17.8177 72.0586-16.6719 72.5456-15.526 72.7891-14.3372 72.7891-13.1055 72.7891-11.8164 72.5527-10.6348 72.0801-9.56055 71.6074-8.48633 70.9271-7.49089 70.0391-6.57422L63.5078 0 29.5195-33.9883 36.0938-40.5195C37.0104-41.4076 38.0059-42.0879 39.0801-42.5605 40.1543-43.0332 41.3359-43.2695 42.625-43.2695ZM72.7461-71.0273 100.547-43.2266 96.207-38.8867C95.6341-38.3138 94.9681-37.8698 94.209-37.5547 93.4499-37.2396 92.6549-37.082 91.8242-37.082 90.9935-37.082 90.1986-37.2396 89.4395-37.5547 88.6803-37.8698 88.0143-38.3138 87.4414-38.8867L68.4063-57.9219C67.8333-58.4948 67.3893-59.1608 67.0742-59.9199 66.7591-60.679 66.6016-61.474 66.6016-62.3047 66.6016-63.1354 66.7591-63.9303 67.0742-64.6895 67.3893-65.4486 67.8333-66.1146 68.4063-66.6875Z" fill="#F03A17" transform="translate(522.89 393)"/></g></svg>