<svg width="209" height="187" xmlns="http://www.w3.org/2000/svg" xmlns:xlink="http://www.w3.org/1999/xlink" overflow="hidden"><defs><clipPath id="clip0"><rect x="984" y="280" width="209" height="187"/></clipPath></defs><g clip-path="url(#clip0)" transform="translate(-984 -280)"><path d="" fill="#333333" transform="translate(1037.4 393)"/><path d="M75.3242-80.3086 91.3086-64.3242 91.3086 18.5195 11 18.5195 11-80.3086Z" transform="translate(1037.4 393)"/><path d="M69.1797-57.9648 69.1797-69.9531 72.7461-74.1211 85.1211-61.7891 81.0391-58.0938Z" fill="#E5E5E5" transform="translate(1037.4 393)"/><path d="M72.7461-61.7891 85.1211-61.7891 85.1211 12.332 17.1875 12.332 17.1875-74.1211 72.7461-74.1211Z" fill="#FFFFFF" transform="translate(1037.4 393)"/><path d="M23.332-55.6016 78.9336-55.6016 78.9336-52.5078 23.332-52.5078ZM23.332-24.707 23.332-27.8008 78.9336-27.8008 78.9336-24.707ZM23.332-6.1875 23.332-9.28125 75.8398-9.28125 75.8398-6.1875ZM75.8398-37.082 75.8398-33.9883 23.332-33.9883 23.332-37.082ZM72.7461-46.3203 72.7461-43.2266 23.332-43.2266 23.332-46.3203ZM72.7461-18.5195 72.7461-15.4688 23.332-15.4688 23.332-18.5195ZM51.1328-64.8828 51.1328-61.7891 23.332-61.7891 23.332-64.8828ZM23.332 3.09375 23.332 0 35.707 0 35.707 3.09375Z" fill="#A6A6A6" transform="translate(1037.4 393)"/></g></svg>