<svg width="228" height="186" xmlns="http://www.w3.org/2000/svg" xmlns:xlink="http://www.w3.org/1999/xlink" overflow="hidden"><defs><clipPath id="clip0"><rect x="688" y="496" width="228" height="186"/></clipPath></defs><g clip-path="url(#clip0)" transform="translate(-688 -496)"><path d="" fill="#333333" transform="translate(741.838 609)"/><path d="M108.023-24.4492C109.227-23.2461 109.828-21.7852 109.828-20.0664 109.828-19.2643 109.671-18.4837 109.355-17.7246 109.04-16.9655 108.596-16.2995 108.023-15.7266L100.289-7.99219C99.1146-6.81771 97.7611-5.91536 96.2285-5.28516 94.696-4.65495 93.099-4.33984 91.4375-4.33984 89.3177-4.33984 87.3268-4.84115 85.4648-5.84375 86.4674-3.98177 86.9688-1.97656 86.9688 0.171875 86.9688 1.97656 86.6465 3.60938 86.002 5.07031 85.3574 6.53125 84.4049 7.89193 83.1445 9.15234L75.582 16.7148C74.3789 17.918 72.9323 18.5195 71.2422 18.5195 70.4115 18.5195 69.6165 18.362 68.8574 18.0469 68.0983 17.7318 67.4323 17.2878 66.8594 16.7148L51.4336 1.28906C51.4336 1.26042 51.4264 1.23177 51.4121 1.20313 51.3978 1.17448 51.3906 1.14583 51.3906 1.11719 51.0755 1.89063 50.832 2.69987 50.6602 3.54492 50.4883 4.38997 50.2448 5.21354 49.9297 6.01563 49.2995 7.47656 48.4974 8.78711 47.5234 9.94727 46.5495 11.1074 45.4466 12.0957 44.2148 12.9121 42.9831 13.7285 41.6439 14.3516 40.1973 14.7813 38.7506 15.2109 37.2396 15.4258 35.6641 15.4258 33.6016 15.4258 31.6393 15.0462 29.7773 14.2871 27.9154 13.528 26.2539 12.418 24.793 10.957L18.6055 4.76953C17.1445 3.30859 16.0273 1.64714 15.2539-0.214844 14.4805-2.07682 14.0938-4.03906 14.0938-6.10156 14.0938-7.64844 14.3158-9.15234 14.7598-10.6133 15.2038-12.0742 15.834-13.4277 16.6504-14.6738 17.4668-15.9199 18.4551-17.0371 19.6152-18.0254 20.7754-19.0137 22.0716-19.8086 23.5039-20.4102 24.2487-20.7253 25.015-20.9688 25.8027-21.1406 26.5905-21.3125 27.3711-21.513 28.1445-21.7422L12.8047-37.3398C11.6016-38.543 11-39.9896 11-41.6797 11-42.5104 11.1576-43.3053 11.4727-44.0645 11.7878-44.8236 12.2318-45.4896 12.8047-46.0625L20.1094-53.4102C21.3698-54.6706 22.7949-55.6589 24.3848-56.375 25.9746-57.0911 27.6576-57.4492 29.4336-57.4492 31.5534-57.4492 33.5299-56.9479 35.3633-55.9453 34.8763-56.862 34.4967-57.8288 34.2246-58.8457 33.9525-59.8626 33.8164-60.901 33.8164-61.9609 33.8164-63.737 34.196-65.4128 34.9551-66.9883 35.7142-68.5638 36.7096-69.9674 37.9414-71.1992L45.2461-78.5039C45.819-79.0768 46.485-79.5208 47.2441-79.8359 48.0033-80.151 48.7839-80.3086 49.5859-80.3086 50.4167-80.3086 51.2116-80.151 51.9707-79.8359 52.7298-79.5208 53.3958-79.0768 53.9688-78.5039L69.3945-63.0781C69.3945-63.0495 69.4017-63.0208 69.416-62.9922 69.4303-62.9635 69.4375-62.9349 69.4375-62.9063 69.7526-63.6797 69.9818-64.4889 70.125-65.334 70.2682-66.179 70.5117-67.0026 70.8555-67.8047 71.4857-69.2656 72.2949-70.5762 73.2832-71.7363 74.2715-72.8965 75.3815-73.8848 76.6133-74.7012 77.845-75.5176 79.1842-76.1406 80.6309-76.5703 82.0775-77 83.5885-77.2148 85.1641-77.2148 87.2266-77.2148 89.1888-76.8353 91.0508-76.0762 92.9128-75.3171 94.5742-74.207 96.0352-72.7461L102.223-66.5586C103.684-65.0977 104.801-63.4362 105.574-61.5742 106.348-59.7122 106.734-57.75 106.734-55.6875 106.734-54.1406 106.512-52.6367 106.068-51.1758 105.624-49.7148 104.994-48.3613 104.178-47.1152 103.361-45.8691 102.373-44.752 101.213-43.7637 100.053-42.7754 98.7565-41.9805 97.3242-41.3789 96.5794-41.0638 95.8131-40.8131 95.0254-40.627 94.2376-40.4408 93.457-40.2474 92.6836-40.0469Z" transform="translate(741.838 609)"/><path d="M86.3242-40.0039C86.3242-39.1732 86.4889-38.3711 86.8184-37.5977 87.1478-36.8242 87.6133-36.1367 88.2148-35.5352L103.641-20.0664 95.9492-12.375C95.3477-11.7734 94.653-11.3079 93.8652-10.9785 93.0775-10.6491 92.2682-10.4844 91.4375-10.4844 89.6901-10.4844 88.1862-11.1146 86.9258-12.375L80.7813-18.5195 83.832-20.1523C83.0013-21.556 81.8698-22.666 80.4375-23.4824 79.0052-24.2988 77.4727-24.707 75.8398-24.707 74.5508-24.707 73.3477-24.4707 72.2305-23.998 71.1133-23.5254 70.1322-22.8665 69.2871-22.0215 68.4421-21.1764 67.7832-20.1953 67.3105-19.0781 66.8379-17.9609 66.6016-16.7578 66.6016-15.4688 66.6016-13.8073 66.9954-12.2676 67.7832-10.8496 68.571-9.43164 69.6953-8.30729 71.1563-7.47656L72.7461-10.5273 78.9336-4.38281C79.5352-3.8099 79.9935-3.1224 80.3086-2.32031 80.6237-1.51823 80.7813-0.701823 80.7813 0.128906 80.7813 0.959635 80.6237 1.76888 80.3086 2.55664 79.9935 3.3444 79.5352 4.03906 78.9336 4.64063L71.2422 12.332 55.7734-3.09375C55.2005-3.66667 54.5202-4.11784 53.7324-4.44727 52.9447-4.77669 52.1354-4.94141 51.3047-4.94141 50.474-4.94141 49.6576-4.78385 48.8555-4.46875 48.0534-4.15365 47.3659-3.69531 46.793-3.09375 46.3633-2.66406 46.0339-2.17708 45.8047-1.63281 45.5755-1.08854 45.3822-0.515625 45.2246 0.0859375 45.0671 0.6875 44.9238 1.28906 44.7949 1.89063 44.666 2.49219 44.487 3.0651 44.2578 3.60938 43.513 5.35677 42.3672 6.73177 40.8203 7.73438 39.2734 8.73698 37.5547 9.23828 35.6641 9.23828 34.4609 9.23828 33.2936 9.01628 32.1621 8.57227 31.0306 8.12825 30.0352 7.47656 29.1758 6.61719L22.9883 0.429688C24.7643-0.802083 26.526-2.03385 28.2734-3.26563 30.0208-4.4974 31.7682-5.74349 33.5156-7.00391 34.3464-7.63411 35.2487-8.27865 36.2227-8.9375 37.1966-9.59635 38.056-10.3125 38.8008-11.0859 40.0326-12.375 40.6484-13.8646 40.6484-15.5547 40.6484-16.901 40.276-18.1042 39.5313-19.1641 39.4167-19.3359 39.2878-19.4863 39.1445-19.6152 39.0013-19.7441 38.8867-19.8945 38.8008-20.0664L27.6719-39.832 33.8594-49.4141 39.7031-43.5703C40.2474-42.9974 40.6556-42.4388 40.9277-41.8945 41.1999-41.3503 41.4147-40.7917 41.5723-40.2188 41.7298-39.6458 41.873-39.0514 42.002-38.4355 42.1309-37.8197 42.3385-37.1823 42.625-36.5234 43.3411-34.8047 44.4727-33.4368 46.0195-32.4199 47.5664-31.403 49.2708-30.8945 51.1328-30.8945 52.4219-30.8945 53.6322-31.1309 54.7637-31.6035 55.8952-32.0762 56.8763-32.735 57.707-33.5801 58.5378-34.4251 59.1966-35.4063 59.6836-36.5234 60.1706-37.6406 60.4141-38.8438 60.4141-40.1328 60.4141-42.0234 59.9056-43.7422 58.8887-45.2891 57.8717-46.8359 56.4896-47.9818 54.7422-48.7266 54.2266-48.9557 53.6608-49.1348 53.0449-49.2637 52.429-49.3926 51.8203-49.5358 51.2188-49.6934 50.6172-49.8509 50.0443-50.0443 49.5-50.2734 48.9557-50.5026 48.4688-50.832 48.0391-51.2617L41.8945-57.4492 51.4336-64.668 71.1992-52.5078C71.3711-52.3932 71.5215-52.2715 71.6504-52.1426 71.7793-52.0137 71.9297-51.8919 72.1016-51.7773 73.1615-51.0325 74.3646-50.6602 75.7109-50.6602 75.9688-50.6602 76.4915-51.0397 77.2793-51.7988 78.0671-52.5579 78.998-53.5319 80.0723-54.7207 81.1465-55.9095 82.2923-57.2129 83.5098-58.6309 84.7272-60.0488 85.8874-61.4167 86.9902-62.7344 88.0931-64.0521 89.0671-65.2194 89.9121-66.2363 90.7572-67.2533 91.3372-67.9622 91.6523-68.3633L97.8398-62.2188C98.6992-61.3594 99.3652-60.3568 99.8379-59.2109 100.311-58.0651 100.547-56.8763 100.547-55.6445 100.547-53.7539 100.046-52.0423 99.043-50.5098 98.0404-48.9772 96.6654-47.8385 94.918-47.0938 94.3737-46.8646 93.8008-46.6784 93.1992-46.5352 92.5977-46.3919 91.9961-46.2415 91.3945-46.084 90.793-45.9264 90.22-45.7331 89.6758-45.5039 89.1315-45.2747 88.6445-44.9453 88.2148-44.5156 87.6133-43.9427 87.1478-43.2552 86.8184-42.4531 86.4889-41.651 86.3242-40.8346 86.3242-40.0039Z" fill="#757575" transform="translate(741.838 609)"/><path d="M65.0547 6.1875 49.5859-9.28125C48.3542-10.513 46.8646-11.1289 45.1172-11.1289 44.2865-11.1289 43.4772-10.9714 42.6895-10.6563 41.9017-10.3411 41.2214-9.88281 40.6484-9.28125 40.2188-8.85156 39.8893-8.35742 39.6602-7.79883 39.431-7.24023 39.2376-6.66732 39.0801-6.08008 38.9225-5.49284 38.7721-4.89844 38.6289-4.29688 38.4857-3.69531 38.2995-3.1224 38.0703-2.57813 37.3255-0.830729 36.1868 0.551432 34.6543 1.56836 33.1217 2.58529 31.4102 3.09375 29.5195 3.09375 28.2305 3.09375 27.0273 2.85026 25.9102 2.36328 24.793 1.8763 23.819 1.21745 22.9883 0.386719 22.1576-0.44401 21.4987-1.42513 21.0117-2.55664 20.5247-3.68815 20.2813-4.89844 20.2813-6.1875 20.2813-8.04948 20.7897-9.75391 21.8066-11.3008 22.8236-12.8477 24.1914-13.9792 25.9102-14.6953 26.4544-14.9245 27.0273-15.1035 27.6289-15.2324 28.2305-15.3613 28.8249-15.5046 29.4121-15.6621 29.9993-15.8197 30.5723-16.0202 31.1309-16.2637 31.6895-16.5072 32.1836-16.8438 32.6133-17.2734 33.8451-18.5052 34.4609-19.9948 34.4609-21.7422 34.4609-22.5729 34.3034-23.3822 33.9883-24.1699 33.6732-24.9577 33.2148-25.6523 32.6133-26.2539L17.1875-41.7227 24.8789-49.4141C25.4805-50.0156 26.1751-50.474 26.9629-50.7891 27.7507-51.1042 28.5599-51.2617 29.3906-51.2617 30.2214-51.2617 31.0378-51.1042 31.8398-50.7891 32.6419-50.474 33.3294-50.0156 33.9023-49.4141 34.3607-48.9271 34.7116-48.39 34.9551-47.8027 35.1986-47.2155 35.3991-46.5924 35.5566-45.9336 35.7142-45.2747 35.8789-44.6016 36.0508-43.9141 36.2227-43.2266 36.4733-42.5534 36.8027-41.8945 37.1322-41.2357 37.569-40.6055 38.1133-40.0039 38.6576-39.4023 39.4023-38.8581 40.3477-38.3711 40.4049-38.1419 40.5124-37.8197 40.6699-37.4043 40.8275-36.9889 41.0137-36.5807 41.2285-36.1797 41.4434-35.7786 41.6797-35.4277 41.9375-35.127 42.1953-34.8262 42.4674-34.6758 42.7539-34.6758 43.2695-34.6758 43.8281-34.8333 44.4297-35.1484 45.0313-35.4635 45.6471-35.8359 46.2773-36.2656 46.9076-36.6953 47.5163-37.1178 48.1035-37.5332 48.6908-37.9486 49.2422-38.2422 49.7578-38.4141L61.9609-42.7969 64.8398-29.5195C63.4362-28.6888 62.3477-27.5788 61.5742-26.1895 60.8008-24.8001 60.4141-23.2891 60.4141-21.6563 60.4141-19.7656 60.9154-18.054 61.918-16.5215 62.9206-14.9889 64.2956-13.8503 66.043-13.1055 66.5872-12.8763 67.1602-12.6901 67.7617-12.5469 68.3633-12.4036 68.9648-12.2533 69.5664-12.0957 70.168-11.9382 70.7409-11.7448 71.2852-11.5156 71.8294-11.2865 72.3164-10.957 72.7461-10.5273 73.3477-9.95443 73.8131-9.27409 74.1426-8.48633 74.472-7.69857 74.6367-6.88932 74.6367-6.05859 74.6367-4.3112 74.0065-2.80729 72.7461-1.54688Z" fill="#16C60C" transform="translate(741.838 609)"/><path d="M56.2891-38.0703C56.7474-38.8438 57.1126-39.8034 57.3848-40.9492 57.6569-42.0951 57.8646-43.2839 58.0078-44.5156 58.151-45.7474 58.2441-46.9648 58.2871-48.168 58.3301-49.3711 58.3516-50.431 58.3516-51.3477 58.3516-52.0065 58.3516-52.6725 58.3516-53.3457 58.3516-54.0189 58.3229-54.6849 58.2656-55.3438 57.9792-55.3724 57.3704-55.4583 56.4395-55.6016 55.5085-55.7448 54.4271-55.8952 53.1953-56.0527 51.9635-56.2103 50.6745-56.3893 49.3281-56.5898 47.9818-56.7904 46.7357-56.9694 45.5898-57.127 44.444-57.2845 43.4987-57.4206 42.7539-57.5352 42.0091-57.6497 41.6224-57.7214 41.5938-57.75 41.0781-58.3229 40.6842-58.9746 40.4121-59.7051 40.14-60.4355 40.0039-61.1732 40.0039-61.918 40.0039-62.7487 40.1686-63.5579 40.498-64.3457 40.8275-65.1335 41.293-65.8281 41.8945-66.4297L49.5859-74.1211 57.8789-65.8711 62.1758-56.1172 75.625-57.3203 85.293-71.0273C86.5534-71.0273 87.735-70.7839 88.8379-70.2969 89.9408-69.8099 90.9004-69.1439 91.7168-68.2988 92.5332-67.4538 93.1777-66.4727 93.6504-65.3555 94.123-64.2383 94.3594-63.0495 94.3594-61.7891 94.3594-59.9271 93.8509-58.2155 92.834-56.6543 91.8171-55.0931 90.4492-53.9544 88.7305-53.2383 88.1862-53.0091 87.6133-52.8301 87.0117-52.7012 86.4102-52.5723 85.8086-52.429 85.207-52.2715 84.6055-52.1139 84.0325-51.9206 83.4883-51.6914 82.944-51.4622 82.457-51.1328 82.0273-50.7031 81.4258-50.1302 80.9674-49.4427 80.6523-48.6406 80.3372-47.8385 80.1797-47.0221 80.1797-46.1914 80.1797-45.3607 80.3444-44.5514 80.6738-43.7637 81.0033-42.9759 81.4544-42.2956 82.0273-41.7227L97.4531-26.2539 89.7617-18.5195C89.1888-17.9466 88.5013-17.4954 87.6992-17.166 86.8971-16.8366 86.0807-16.6719 85.25-16.6719 84.4193-16.6719 83.61-16.8294 82.8223-17.1445 82.0345-17.4596 81.3542-17.918 80.7813-18.5195 80.3516-18.9492 80.015-19.4434 79.7715-20.002 79.528-20.5605 79.3275-21.1335 79.1699-21.7207 79.0124-22.3079 78.8691-22.9023 78.7402-23.5039 78.6113-24.1055 78.4323-24.6784 78.2031-25.2227 77.4583-26.9414 76.3197-28.3164 74.7871-29.3477 73.2546-30.3789 71.543-30.8945 69.6523-30.8945 68.8216-30.8945 67.9909-30.7799 67.1602-30.5508 66.3294-30.3216 65.556-29.9779 64.8398-29.5195Z" fill="#B3DBF2" transform="translate(741.838 609)"/><path d="M85.293-71.0273 75.668-51.8203 73.4766-54.0117 60.3711-27.8008C56.8477-31.3529 53.3099-34.8906 49.7578-38.4141 51.1901-39.2448 52.293-40.362 53.0664-41.7656 53.8398-43.1693 54.2266-44.6875 54.2266-46.3203 54.2266-48.2109 53.7253-49.9225 52.7227-51.4551 51.7201-52.9876 50.3451-54.1263 48.5977-54.8711 48.2253-55.043 47.681-55.2148 46.9648-55.3867 46.2487-55.5586 45.5254-55.752 44.7949-55.9668 44.0645-56.1816 43.3984-56.4323 42.7969-56.7188 42.1953-57.0052 41.8086-57.349 41.6367-57.75L57.8789-65.8711 65.0547-58.6953C65.6563-58.0938 66.3438-57.6283 67.1172-57.2988 67.8906-56.9694 68.6927-56.8047 69.5234-56.8047 70.3542-56.8047 71.1634-56.9694 71.9512-57.2988 72.7389-57.6283 73.4193-58.0938 73.9922-58.6953 74.4219-59.125 74.7585-59.6191 75.002-60.1777 75.2454-60.7363 75.4388-61.3092 75.582-61.8965 75.7253-62.4837 75.8685-63.0781 76.0117-63.6797 76.1549-64.2813 76.3411-64.8542 76.5703-65.3984 77.3438-67.2031 78.5039-68.5924 80.0508-69.5664 81.5977-70.5404 83.345-71.0273 85.293-71.0273Z" fill="#13A10E" transform="translate(741.838 609)"/><path d="M48.5117-37.7695 39.4453-28.7031 35.0625-33.0859 40.3477-38.3711C41.0352-37.9414 41.7728-37.6191 42.5605-37.4043 43.3483-37.1895 44.1576-37.082 44.9883-37.082 46.2487-37.082 47.4232-37.3112 48.5117-37.7695Z" fill="#BB9167" transform="translate(741.838 609)"/></g></svg>