<svg width="868" height="372" xmlns="http://www.w3.org/2000/svg" xmlns:xlink="http://www.w3.org/1999/xlink" overflow="hidden"><defs><clipPath id="clip0"><rect x="46" y="118" width="868" height="372"/></clipPath></defs><g clip-path="url(#clip0)" transform="translate(-46 -118)"><rect x="47" y="118" width="866" height="371" fill="#FFFFFF"/><path d="M95 427 426.189 427 426.189 431 95 431ZM424.189 423 436.189 429 424.189 435Z"/><text font-family="KoPubWorldDotum,KoPubWorldDotum_MSFontService,sans-serif" font-weight="500" font-size="24" transform="translate(374.669 462)">time </text><rect x="95.5001" y="222.5" width="102" height="50" stroke="#000000" stroke-width="1.33333" stroke-miterlimit="8" fill="#E7E6E6"/><text font-family="KoPubWorldDotum,KoPubWorldDotum_MSFontService,sans-serif" font-weight="500" font-size="24" transform="translate(116.899 257)">task1</text><rect x="197.5" y="272.5" width="103" height="51" stroke="#000000" stroke-width="1.33333" stroke-miterlimit="8" fill="#E7E6E6"/><text font-family="KoPubWorldDotum,KoPubWorldDotum_MSFontService,sans-serif" font-weight="500" font-size="24" transform="translate(219.386 308)">task2</text><rect x="300.5" y="323.5" width="102" height="51" stroke="#000000" stroke-width="1.33333" stroke-miterlimit="8" fill="#E7E6E6"/><text font-family="KoPubWorldDotum,KoPubWorldDotum_MSFontService,sans-serif" font-weight="500" font-size="24" transform="translate(321.872 359)">task3</text><path d="M197.5 324.5 197.5 429.583" stroke="#000000" stroke-width="3" stroke-miterlimit="8" stroke-dasharray="9 3" fill="none" fill-rule="evenodd"/><path d="M300.5 374.5 300.5 430.285" stroke="#000000" stroke-width="3" stroke-miterlimit="8" stroke-dasharray="9 3" fill="none" fill-rule="evenodd"/><path d="M524 427 855.189 427 855.189 431 524 431ZM853.189 423 865.189 429 853.189 435Z"/><text font-family="KoPubWorldDotum,KoPubWorldDotum_MSFontService,sans-serif" font-weight="500" font-size="24" transform="translate(804.074 462)">time </text><rect x="524.5" y="222.5" width="103" height="50" stroke="#000000" stroke-width="1.33333" stroke-miterlimit="8" fill="#E7E6E6"/><text font-family="KoPubWorldDotum,KoPubWorldDotum_MSFontService,sans-serif" font-weight="500" font-size="24" transform="translate(546.305 257)">task1</text><rect x="575.5" y="272.5" width="103" height="51" stroke="#000000" stroke-width="1.33333" stroke-miterlimit="8" fill="#E7E6E6"/><text font-family="KoPubWorldDotum,KoPubWorldDotum_MSFontService,sans-serif" font-weight="500" font-size="24" transform="translate(597.548 308)">task2</text><rect x="627.5" y="323.5" width="102" height="51" stroke="#000000" stroke-width="1.33333" stroke-miterlimit="8" fill="#E7E6E6"/><text font-family="KoPubWorldDotum,KoPubWorldDotum_MSFontService,sans-serif" font-weight="500" font-size="24" transform="translate(648.791 359)">task3<tspan font-weight="700" x="-496.004" y="-195">Blocking (</tspan><tspan font-weight="700" x="-390.484" y="-195">블로킹</tspan><tspan font-weight="700" x="-327.484" y="-195">) </tspan><tspan font-weight="700" x="-312.984" y="-195">동작</tspan><tspan font-weight="700" x="-104.765" y="-195">Non blocking (</tspan><tspan font-weight="700" x="49.0881" y="-195">논</tspan><tspan font-weight="700" x="77.0881" y="-195">블로킹</tspan><tspan font-weight="700" x="140.088" y="-195">) </tspan><tspan font-weight="700" x="154.588" y="-195">동작</tspan></text></g></svg>