<svg width="645" height="215" xmlns="http://www.w3.org/2000/svg" xmlns:xlink="http://www.w3.org/1999/xlink" overflow="hidden"><defs><clipPath id="clip0"><rect x="158" y="82" width="645" height="215"/></clipPath><clipPath id="clip1"><rect x="159" y="116" width="322" height="203"/></clipPath><clipPath id="clip2"><rect x="480" y="116" width="321" height="203"/></clipPath><clipPath id="clip3"><rect x="159" y="162" width="642" height="203"/></clipPath></defs><g clip-path="url(#clip0)" transform="translate(-158 -82)"><path d="M159.135 83.4467 800.865 83.4467 800.865 137.157 159.135 137.157Z" fill="#FFFFFF" fill-rule="evenodd"/><path d="M159.135 137.157 800.865 137.157 800.865 190.867 159.135 190.867Z" fill="#FFFFFF" fill-rule="evenodd"/><path d="M159.135 190.867 480 190.867 480 244.577 159.135 244.577Z" fill="#FFFFFF" fill-rule="evenodd"/><path d="M480 190.867 800.865 190.867 800.865 244.577 480 244.577Z" fill="#FFFFFF" fill-rule="evenodd"/><path d="M159.135 244.577 800.865 244.577 800.865 294.834 159.135 294.834Z" fill="#FFFFFF" fill-rule="evenodd"/><path d="M480 190.534 480 244.911" stroke="#000000" stroke-width="0.666667" stroke-linejoin="round" stroke-miterlimit="10" stroke-dasharray="2.66667 2" fill="none" fill-rule="evenodd"/><path d="M158.468 137.157 801.532 137.157" stroke="#000000" stroke-width="0.666667" stroke-linejoin="round" stroke-miterlimit="10" stroke-dasharray="2.66667 2" fill="none" fill-rule="evenodd"/><path d="M158.468 190.867 801.532 190.867" stroke="#000000" stroke-width="0.666667" stroke-linejoin="round" stroke-miterlimit="10" stroke-dasharray="2.66667 2" fill="none" fill-rule="evenodd"/><path d="M158.468 244.577 801.532 244.577" stroke="#000000" stroke-width="0.666667" stroke-linejoin="round" stroke-miterlimit="10" stroke-dasharray="2.66667 2" fill="none" fill-rule="evenodd"/><path d="M159.135 82.7801 159.135 295.501" stroke="#FFFFFF" stroke-width="1.33333" stroke-linejoin="round" stroke-miterlimit="10" fill="none" fill-rule="evenodd"/><path d="M800.865 82.7801 800.865 295.501" stroke="#FFFFFF" stroke-width="1.33333" stroke-linejoin="round" stroke-miterlimit="10" fill="none" fill-rule="evenodd"/><path d="M158.468 83.4467 801.532 83.4467" stroke="#FFFFFF" stroke-width="1.33333" stroke-linejoin="round" stroke-miterlimit="10" fill="none" fill-rule="evenodd"/><path d="M158.468 294.834 801.532 294.834" stroke="#FFFFFF" stroke-width="1.33333" stroke-linejoin="round" stroke-miterlimit="10" fill="none" fill-rule="evenodd"/><text font-family="S-Core Dream 4,S-Core Dream 4_MSFontService,sans-serif" font-weight="200" font-size="24" transform="translate(365.693 119)">Node.js Core Library<tspan x="20.5567" y="54">Node.js Bindings</tspan></text><g clip-path="url(#clip1)"><text font-family="S-Core Dream 4,S-Core Dream 4_MSFontService,sans-serif" font-weight="200" font-size="24" transform="translate(439.402 226)">V8</text></g><g clip-path="url(#clip2)"><text font-family="S-Core Dream 4,S-Core Dream 4_MSFontService,sans-serif" font-weight="200" font-size="24" transform="translate(489.6 226)">libuv</text></g><g clip-path="url(#clip3)"><text font-family="S-Core Dream 4,S-Core Dream 4_MSFontService,sans-serif" font-weight="200" font-size="24" transform="translate(168.735 272)">JavaScript engine    </text></g><text font-family="S-Core Dream 4,S-Core Dream 4_MSFontService,sans-serif" font-weight="200" font-size="24" transform="translate(400.562 272)">↗<tspan x="149" y="0">↖</tspan><tspan x="200" y="0">Non blocking I/O</tspan></text></g></svg>