<?xml version="1.0" standalone="no"?>
<!DOCTYPE svg PUBLIC "-//W3C//DTD SVG 20010904//EN"
 "http://www.w3.org/TR/2001/REC-SVG-20010904/DTD/svg10.dtd">
<svg version="1.0" xmlns="http://www.w3.org/2000/svg"
 width="460.000000pt" height="460.000000pt" viewBox="0 0 460.000000 460.000000"
 preserveAspectRatio="xMidYMid meet">

<g transform="translate(0.000000,460.000000) scale(0.100000,-0.100000)"
fill="#000000" stroke="none">
<path d="M1513 3600 c-76 -16 -196 -86 -269 -158 -75 -74 -131 -171 -159 -278
-19 -73 -19 -212 0 -284 71 -270 331 -464 600 -447 168 10 311 79 415 199 36
41 78 100 93 131 74 153 74 378 -2 522 -14 28 -27 53 -29 58 -2 4 307 7 687 7
l691 0 0 -535 0 -535 -967 0 c-605 0 -991 -4 -1030 -10 -107 -18 -198 -67
-275 -148 -76 -81 -93 -109 -119 -201 -17 -60 -19 -106 -19 -493 l0 -428 35 0
34 0 3 448 3 447 34 67 c59 117 177 211 299 237 68 14 305 14 372 0 28 -6 70
-25 93 -42 72 -55 91 -108 153 -433 31 -159 59 -309 62 -334 l7 -45 428 -3
427 -2 0 35 0 35 -397 2 -397 3 -13 60 c-22 106 -62 95 347 95 l360 0 0 35 0
35 -124 0 -125 0 -3 125 -3 125 443 0 442 0 -2 768 -3 767 -755 0 -755 0 -38
35 c-52 48 -130 96 -197 122 -43 17 -81 22 -180 24 -69 2 -144 -1 -167 -6z
m328 -88 c249 -98 389 -365 324 -617 -23 -86 -90 -199 -154 -256 -122 -109
-268 -150 -438 -125 -117 17 -195 58 -280 146 -86 88 -131 176 -144 283 -33
253 87 465 317 564 67 28 96 32 209 29 84 -2 123 -8 166 -24z m1699 -1427 l0
-125 -677 2 -677 3 -11 45 c-14 55 -46 117 -80 158 -14 16 -25 33 -25 36 0 3
331 6 735 6 l735 0 0 -125z m-1210 -320 l0 -125 -45 0 c-25 0 -45 3 -45 8 0
11 -29 183 -36 215 l-6 27 66 0 66 0 0 -125z m330 0 l0 -125 -130 0 -130 0 0
125 0 125 130 0 130 0 0 -125z"/>
</g>
</svg>
