<svg width="219" height="187" xmlns="http://www.w3.org/2000/svg" xmlns:xlink="http://www.w3.org/1999/xlink" overflow="hidden"><defs><clipPath id="clip0"><rect x="770" y="14" width="219" height="187"/></clipPath></defs><g clip-path="url(#clip0)" transform="translate(-770 -14)"><path d="" fill="#333333" transform="translate(823.895 127)"/><path d="M29.5195 15.4258C26.9701 15.4258 24.571 14.9388 22.3223 13.9648 20.0736 12.9909 18.1113 11.666 16.4355 9.99023 14.7598 8.31445 13.4349 6.35221 12.4609 4.10352 11.487 1.85482 11-0.544271 11-3.09375 11-5.15625 11.3294-7.16146 11.9883-9.10938 12.6471-11.0573 13.6211-12.8477 14.9102-14.4805 13.6211-15.8841 12.6471-17.4668 11.9883-19.2285 11.3294-20.9902 11-22.8164 11-24.707 11-27.2279 11.5658-29.5911 12.6973-31.7969 13.8288-34.0026 15.4258-35.8359 17.4883-37.2969 17.2878-38.1849 17.1875-39.1445 17.1875-40.1758 17.1875-41.9232 17.5313-43.5703 18.2188-45.1172 16.8438-46.5781 15.8125-48.1966 15.125-49.9727 14.4375-51.7487 14.0938-53.625 14.0938-55.6016 14.0938-57.7214 14.502-59.7194 15.3184-61.5957 16.1348-63.472 17.2376-65.1048 18.627-66.4941 20.0163-67.8835 21.6491-68.9863 23.5254-69.8027 25.4017-70.6191 27.3997-71.0273 29.5195-71.0273L97.4531-71.0273 97.4531-52.5078 100.547-52.5078 100.547-27.8008 94.4023-27.8008 94.4023-21.6133 100.547-21.6133 100.547 15.4258Z" transform="translate(823.895 127)"/><path d="M29.5195-46.3203C28.2305-46.3203 27.0273-46.5638 25.9102-47.0508 24.793-47.5378 23.819-48.2038 22.9883-49.0488 22.1576-49.8939 21.4987-50.875 21.0117-51.9922 20.5247-53.1094 20.2813-54.3125 20.2813-55.6016 20.2813-56.8906 20.5247-58.0938 21.0117-59.2109 21.4987-60.3281 22.1576-61.3092 22.9883-62.1543 23.819-62.9993 24.793-63.6654 25.9102-64.1523 27.0273-64.6393 28.2305-64.8828 29.5195-64.8828L48.0391-64.8828 48.0391-37.5977Z" fill="#16C60C" transform="translate(823.895 127)"/><path d="M44.9883-46.3203C43.6992-46.3203 42.4961-46.5638 41.3789-47.0508 40.2617-47.5378 39.2806-48.2038 38.4355-49.0488 37.5905-49.8939 36.9245-50.875 36.4375-51.9922 35.9505-53.1094 35.707-54.3125 35.707-55.6016 35.707-56.8906 35.9505-58.0938 36.4375-59.2109 36.9245-60.3281 37.5905-61.3092 38.4355-62.1543 39.2806-62.9993 40.2617-63.6654 41.3789-64.1523 42.4961-64.6393 43.6992-64.8828 44.9883-64.8828L91.3086-64.8828 91.3086-61.7891 88.2148-61.7891 83.6172-55.6445 88.2148-49.4141 91.3086-49.4141 91.3086-42.7969 45.2461-42.7969Z" fill="#107C10" transform="translate(823.895 127)"/><path d="M17.1875-24.707C17.1875-25.9961 17.431-27.1992 17.918-28.3164 18.4049-29.4336 19.0638-30.4147 19.8945-31.2598 20.7253-32.1048 21.6992-32.7708 22.8164-33.2578 23.9336-33.7448 25.1367-33.9883 26.4258-33.9883L29.5625-33.9883 38.8008-41.0781 38.8008-7.51953 29.6484-15.4688 26.4258-15.4688C25.1367-15.4687 23.9336-15.7122 22.8164-16.1992 21.6992-16.6862 20.7253-17.3451 19.8945-18.1758 19.0638-19.0065 18.4049-19.9805 17.918-21.0977 17.431-22.2148 17.1875-23.418 17.1875-24.707Z" fill="#3A96DD" transform="translate(823.895 127)"/><path d="M38.8008-15.4688C37.5117-15.4687 36.3086-15.7122 35.1914-16.1992 34.0742-16.6862 33.0931-17.3451 32.248-18.1758 31.403-19.0065 30.737-19.9805 30.25-21.0977 29.763-22.2148 29.5195-23.418 29.5195-24.707 29.5195-25.9961 29.763-27.1992 30.25-28.3164 30.737-29.4336 31.403-30.4147 32.248-31.2598 33.0931-32.1048 34.0742-32.7708 35.1914-33.2578 36.3086-33.7448 37.5117-33.9883 38.8008-33.9883L38.8008-37.8555 88.2148-37.8555 88.2148-30.8945 85.1211-30.8945 82.0273-27.8008 82.0273-21.8711 85.0781-18.5195 88.2148-18.5195 88.2148-11.9883 38.8867-11.9883Z" fill="#0063B1" transform="translate(823.895 127)"/><path d="M29.5195-46.3203 44.9883-46.3203 44.9883-33.9883 29.5195-33.9883C28.6602-33.9883 27.8581-34.153 27.1133-34.4824 26.3685-34.8118 25.7168-35.2559 25.1582-35.8145 24.5996-36.373 24.1556-37.0247 23.8262-37.7695 23.4967-38.5143 23.332-39.3164 23.332-40.1758 23.332-41.0352 23.4967-41.8372 23.8262-42.582 24.1556-43.3268 24.5996-43.9785 25.1582-44.5371 25.7168-45.0957 26.3685-45.5326 27.1133-45.8477 27.8581-46.1628 28.6602-46.3203 29.5195-46.3203Z" fill="#FFB900" transform="translate(823.895 127)"/><path d="M44.9883-33.9883C44.1289-33.9883 43.3197-34.1458 42.5605-34.4609 41.8014-34.776 41.1426-35.2129 40.584-35.7715 40.0254-36.3301 39.5885-36.9889 39.2734-37.748 38.9583-38.5072 38.8008-39.3164 38.8008-40.1758 38.8008-41.0352 38.9655-41.8372 39.2949-42.582 39.6243-43.3268 40.0684-43.9785 40.627-44.5371 41.1855-45.0957 41.8372-45.5326 42.582-45.8477 43.3268-46.1628 44.1289-46.3203 44.9883-46.3203L97.4531-46.3203 97.4531-43.2266 94.4023-43.2266 91.3086-40.1758 94.4023-37.082 97.4531-37.082 97.4531-33.9883Z" fill="#EBA300" transform="translate(823.895 127)"/><path d="M29.5195-15.4688 54.2266-15.4688 54.2266 9.23828 29.5195 9.23828C27.8008 9.23828 26.1966 8.91602 24.707 8.27148 23.2174 7.62695 21.9141 6.74609 20.7969 5.62891 19.6797 4.51172 18.7988 3.20833 18.1543 1.71875 17.5098 0.229167 17.1875-1.375 17.1875-3.09375 17.1875-4.8125 17.5098-6.42383 18.1543-7.92773 18.7988-9.43164 19.6797-10.7422 20.7969-11.8594 21.9141-12.9766 23.2174-13.8574 24.707-14.502 26.1966-15.1465 27.8008-15.4687 29.5195-15.4688Z" fill="#F7630C" transform="translate(823.895 127)"/><path d="M51.1328 9.23828C49.4427 9.23828 47.8457 8.91602 46.3418 8.27148 44.8379 7.62695 43.5273 6.74609 42.4102 5.62891 41.293 4.51172 40.4121 3.20117 39.7676 1.69727 39.123 0.193359 38.8008-1.40365 38.8008-3.09375 38.8008-4.75521 39.1302-6.33789 39.7891-7.8418 40.4479-9.3457 41.3359-10.6634 42.4531-11.7949 43.5703-12.9264 44.8737-13.8216 46.3633-14.4805 47.8529-15.1393 49.4427-15.4687 51.1328-15.4688L97.4531-15.4688 97.4531-12.375 94.3594-12.375 91.3086-9.49609 91.3086 2.70703 94.3594 6.1875 97.4531 6.1875 97.4531 9.23828Z" fill="#CA5010" transform="translate(823.895 127)"/><path d="M41.8945-3.09375C41.8945-4.38281 42.138-5.58594 42.625-6.70313 43.112-7.82031 43.7708-8.80143 44.6016-9.64648 45.4323-10.4915 46.4063-11.1576 47.5234-11.6445 48.6406-12.1315 49.8438-12.375 51.1328-12.375L94.4023-12.375 94.4023 6.1875 51.1328 6.1875C49.8438 6.1875 48.6406 5.94401 47.5234 5.45703 46.4063 4.97005 45.4323 4.30404 44.6016 3.45898 43.7708 2.61393 43.112 1.63281 42.625 0.515625 42.138-0.601562 41.8945-1.80469 41.8945-3.09375ZM85.1211-30.8945 85.1211-18.5195 38.8008-18.5195C37.9414-18.5195 37.1393-18.6842 36.3945-19.0137 35.6497-19.3431 34.998-19.7871 34.4395-20.3457 33.8809-20.9043 33.4368-21.556 33.1074-22.3008 32.778-23.0456 32.6133-23.8477 32.6133-24.707 32.6133-25.5664 32.7708-26.3685 33.0859-27.1133 33.401-27.8581 33.8379-28.5098 34.3965-29.0684 34.9551-29.627 35.6139-30.071 36.373-30.4004 37.1322-30.7298 37.9414-30.8945 38.8008-30.8945ZM44.9883-49.4141C44.1289-49.4141 43.3268-49.5788 42.582-49.9082 41.8372-50.2376 41.1855-50.6816 40.627-51.2402 40.0684-51.7988 39.6243-52.4505 39.2949-53.1953 38.9655-53.9401 38.8008-54.7422 38.8008-55.6016 38.8008-56.4609 38.9655-57.263 39.2949-58.0078 39.6243-58.7526 40.0684-59.4043 40.627-59.9629 41.1855-60.5215 41.8372-60.9655 42.582-61.2949 43.3268-61.6243 44.1289-61.7891 44.9883-61.7891L88.2148-61.7891 88.2148-49.4141ZM44.9883-43.2266 94.4023-43.2266 94.4023-37.082 44.9883-37.082C44.1289-37.082 43.3984-37.3828 42.7969-37.9844 42.1953-38.5859 41.8945-39.3164 41.8945-40.1758 41.8945-41.0065 42.2025-41.7227 42.8184-42.3242 43.4342-42.9258 44.1576-43.2266 44.9883-43.2266Z" fill="#FFFFFF" transform="translate(823.895 127)"/></g></svg>