<svg width="228" height="187" xmlns="http://www.w3.org/2000/svg" xmlns:xlink="http://www.w3.org/1999/xlink" overflow="hidden"><defs><clipPath id="clip0"><rect x="57" y="280" width="228" height="187"/></clipPath></defs><g clip-path="url(#clip0)" transform="translate(-57 -280)"><path d="" fill="#24292E" transform="translate(110.802 393)"/><path d="M60.4141 18.5195C57.8646 18.5195 55.4655 18.0326 53.2168 17.0586 50.9681 16.0846 49.0059 14.7598 47.3301 13.084 45.6543 11.4082 44.3294 9.44596 43.3555 7.19727 42.3815 4.94857 41.8945 2.54948 41.8945 0 41.8945-0.916667 41.9518-1.74023 42.0664-2.4707 42.181-3.20117 42.36-3.88867 42.6035-4.5332 42.847-5.17773 43.1621-5.8151 43.5488-6.44531 43.9355-7.07552 44.3867-7.7487 44.9023-8.46484 45.2174-8.89453 45.5111-9.2526 45.7832-9.53906 46.0553-9.82552 46.3203-10.0977 46.5781-10.3555 46.8359-10.6133 47.0866-10.8926 47.3301-11.1934 47.5736-11.4941 47.8099-11.888 48.0391-12.375L29.5195-12.375C26.9701-12.375 24.571-12.862 22.3223-13.8359 20.0736-14.8099 18.1113-16.1348 16.4355-17.8105 14.7598-19.4863 13.4349-21.4486 12.4609-23.6973 11.487-25.946 11-28.3451 11-30.8945 11-35.4206 11.5872-39.7891 12.7617-44 13.9362-48.2109 15.5977-52.1497 17.7461-55.8164 19.8945-59.4831 22.4727-62.8203 25.4805-65.8281 28.4883-68.8359 31.8255-71.4141 35.4922-73.5625 39.1589-75.7109 43.0905-77.3724 47.2871-78.5469 51.4837-79.7214 55.8594-80.3086 60.4141-80.3086 64.9401-80.3086 69.3086-79.7214 73.5195-78.5469 77.7305-77.3724 81.6693-75.7109 85.3359-73.5625 89.0026-71.4141 92.3398-68.8359 95.3477-65.8281 98.3555-62.8203 100.934-59.4831 103.082-55.8164 105.23-52.1497 106.892-48.2109 108.066-44 109.241-39.7891 109.828-35.4206 109.828-30.8945 109.828-26.3398 109.241-21.9642 108.066-17.7676 106.892-13.571 105.23-9.63932 103.082-5.97266 100.934-2.30599 98.3555 1.03125 95.3477 4.03906 92.3398 7.04688 89.0026 9.625 85.3359 11.7734 81.6693 13.9219 77.7305 15.5833 73.5195 16.7578 69.3086 17.9323 64.9401 18.5195 60.4141 18.5195Z" transform="translate(110.802 393)"/><path d="M60.4141 12.332C58.6953 12.332 57.084 12.0098 55.5801 11.3652 54.0762 10.7207 52.7656 9.83984 51.6484 8.72266 50.5313 7.60547 49.6504 6.30208 49.0059 4.8125 48.3613 3.32292 48.0391 1.71875 48.0391 0 48.0391-1.0026 48.1895-1.86198 48.4902-2.57813 48.791-3.29427 49.1706-3.94596 49.6289-4.5332 50.0872-5.12044 50.5885-5.66471 51.1328-6.16602 51.6771-6.66732 52.1784-7.21159 52.6367-7.79883 53.0951-8.38607 53.4746-9.03776 53.7754-9.75391 54.0762-10.4701 54.2266-11.3438 54.2266-12.375 54.2266-13.2344 54.0618-14.0365 53.7324-14.7813 53.403-15.526 52.959-16.1777 52.4004-16.7363 51.8418-17.2949 51.1901-17.7318 50.4453-18.0469 49.7005-18.362 48.8984-18.5195 48.0391-18.5195L29.5195-18.5195C27.8008-18.5195 26.1966-18.8418 24.707-19.4863 23.2174-20.1309 21.9141-21.0117 20.7969-22.1289 19.6797-23.2461 18.7988-24.5566 18.1543-26.0605 17.5098-27.5645 17.1875-29.1758 17.1875-30.8945 17.1875-34.8763 17.7031-38.7077 18.7344-42.3887 19.7656-46.0697 21.2194-49.5143 23.0957-52.7227 24.972-55.931 27.2207-58.8457 29.8418-61.4668 32.4629-64.0879 35.3776-66.3366 38.5859-68.2129 41.7943-70.0892 45.2389-71.543 48.9199-72.5742 52.6009-73.6055 56.4323-74.1211 60.4141-74.1211 64.3958-74.1211 68.2272-73.6055 71.9082-72.5742 75.5892-71.543 79.0339-70.0892 82.2422-68.2129 85.4505-66.3366 88.3652-64.0879 90.9863-61.4668 93.6074-58.8457 95.8561-55.931 97.7324-52.7227 99.6087-49.5143 101.062-46.0697 102.094-42.3887 103.125-38.7077 103.641-34.8763 103.641-30.8945 103.641-26.9128 103.125-23.0814 102.094-19.4004 101.062-15.7194 99.6087-12.2747 97.7324-9.06641 95.8561-5.85807 93.6074-2.94336 90.9863-0.322266 88.3652 2.29883 85.4505 4.54753 82.2422 6.42383 79.0339 8.30013 75.5892 9.75391 71.9082 10.7852 68.2272 11.8164 64.3958 12.332 60.4141 12.332Z" fill="#FFB900" transform="translate(110.802 393)"/><path d="M44.9883-44.7734C44.9883-43.7135 44.7878-42.7181 44.3867-41.7871 43.9857-40.8561 43.4342-40.0397 42.7324-39.3379 42.0306-38.6361 41.207-38.0846 40.2617-37.6836 39.3164-37.2826 38.3138-37.082 37.2539-37.082 36.194-37.082 35.1914-37.2826 34.2461-37.6836 33.3008-38.0846 32.4772-38.6361 31.7754-39.3379 31.0736-40.0397 30.5221-40.8561 30.1211-41.7871 29.7201-42.7181 29.5195-43.7135 29.5195-44.7734 29.5195-45.8333 29.7201-46.8359 30.1211-47.7813 30.5221-48.7266 31.0736-49.5501 31.7754-50.252 32.4772-50.9538 33.2936-51.5052 34.2246-51.9063 35.1556-52.3073 36.1654-52.5078 37.2539-52.5078 38.3138-52.5078 39.3164-52.3073 40.2617-51.9063 41.207-51.5052 42.0306-50.9538 42.7324-50.252 43.4342-49.5501 43.9857-48.7266 44.3867-47.7813 44.7878-46.8359 44.9883-45.8333 44.9883-44.7734Z" fill="#16C60C" transform="translate(110.802 393)"/><path d="M69.6953-57.1484C69.6953-56.0599 69.4948-55.0501 69.0938-54.1191 68.6927-53.1881 68.1413-52.3717 67.4395-51.6699 66.7376-50.9681 65.9141-50.4167 64.9688-50.0156 64.0234-49.6146 63.0208-49.4141 61.9609-49.4141 60.8724-49.4141 59.8626-49.6146 58.9316-50.0156 58.0006-50.4167 57.1842-50.9681 56.4824-51.6699 55.7806-52.3717 55.2292-53.1881 54.8281-54.1191 54.4271-55.0501 54.2266-56.0599 54.2266-57.1484 54.2266-58.2083 54.4271-59.2109 54.8281-60.1563 55.2292-61.1016 55.7806-61.9251 56.4824-62.627 57.1842-63.3288 58.0006-63.8802 58.9316-64.2813 59.8626-64.6823 60.8724-64.8828 61.9609-64.8828 63.0208-64.8828 64.0234-64.6823 64.9688-64.2813 65.9141-63.8802 66.7376-63.3288 67.4395-62.627 68.1413-61.9251 68.6927-61.1016 69.0938-60.1563 69.4948-59.2109 69.6953-58.2083 69.6953-57.1484Z" fill="#F03A17" transform="translate(110.802 393)"/><path d="M83.5742-33.9883C82.4857-33.9883 81.4759-34.1888 80.5449-34.5898 79.6139-34.9909 78.7975-35.5423 78.0957-36.2441 77.3939-36.946 76.8424-37.7624 76.4414-38.6934 76.0404-39.6243 75.8398-40.6341 75.8398-41.7227 75.8398-42.7826 76.0404-43.778 76.4414-44.709 76.8424-45.64 77.3939-46.4564 78.0957-47.1582 78.7975-47.86 79.6211-48.4115 80.5664-48.8125 81.5117-49.2135 82.5143-49.4141 83.5742-49.4141 84.6341-49.4141 85.6367-49.2135 86.582-48.8125 87.5273-48.4115 88.3509-47.86 89.0527-47.1582 89.7546-46.4564 90.306-45.64 90.707-44.709 91.1081-43.778 91.3086-42.7826 91.3086-41.7227 91.3086-40.6341 91.1081-39.6243 90.707-38.6934 90.306-37.7624 89.7546-36.946 89.0527-36.2441 88.3509-35.5423 87.5273-34.9909 86.582-34.5898 85.6367-34.1888 84.6341-33.9883 83.5742-33.9883Z" fill="#FCE100" transform="translate(110.802 393)"/><path d="M72.7891-16.9727C72.7891-18.0326 72.9896-19.0352 73.3906-19.9805 73.7917-20.9258 74.3431-21.7493 75.0449-22.4512 75.7467-23.153 76.5631-23.7044 77.4941-24.1055 78.4251-24.5065 79.4206-24.707 80.4805-24.707 81.5404-24.707 82.543-24.5065 83.4883-24.1055 84.4336-23.7044 85.2572-23.153 85.959-22.4512 86.6608-21.7493 87.2122-20.9258 87.6133-19.9805 88.0143-19.0352 88.2148-18.0326 88.2148-16.9727 88.2148-15.9128 88.0143-14.9173 87.6133-13.9863 87.2122-13.0553 86.6608-12.2389 85.959-11.5371 85.2572-10.8353 84.4336-10.2839 83.4883-9.88281 82.543-9.48177 81.5404-9.28125 80.4805-9.28125 79.4206-9.28125 78.4251-9.48177 77.4941-9.88281 76.5631-10.2839 75.7467-10.8353 75.0449-11.5371 74.3431-12.2389 73.7917-13.0553 73.3906-13.9863 72.9896-14.9173 72.7891-15.9128 72.7891-16.9727Z" fill="#0046FF" transform="translate(110.802 393)"/><path d="M72.7461-1.03125C72.7461 0.114583 72.3522 1.08854 71.5645 1.89063 70.7767 2.69271 69.8099 3.09375 68.6641 3.09375 67.5182 3.09375 66.444 2.87891 65.4414 2.44922 64.4388 2.01953 63.5651 1.43229 62.8203 0.6875 62.0755-0.0572916 61.4883-0.93099 61.0586-1.93359 60.6289-2.9362 60.4141-4.01042 60.4141-5.15625 60.4141-6.30208 60.8151-7.27604 61.6172-8.07813 62.4193-8.88021 63.3932-9.28125 64.5391-9.28125 65.6849-9.28125 66.752-9.06641 67.7402-8.63672 68.7285-8.20703 69.595-7.61979 70.3398-6.875 71.0846-6.13021 71.6719-5.25651 72.1016-4.25391 72.5313-3.2513 72.7461-2.17708 72.7461-1.03125Z" fill="#FFFFFF" transform="translate(110.802 393)"/></g></svg>