<svg width="228" height="187" xmlns="http://www.w3.org/2000/svg" xmlns:xlink="http://www.w3.org/1999/xlink" overflow="hidden"><defs><clipPath id="clip0"><rect x="57" y="440" width="228" height="187"/></clipPath></defs><g clip-path="url(#clip0)" transform="translate(-57 -440)"><path d="" fill="#24292E" transform="translate(110.802 553)"/><path d="M109.828-80.3086 109.828 6.1875C109.828 7.8776 109.499 9.46745 108.84 10.957 108.181 12.4466 107.286 13.75 106.154 14.8672 105.023 15.9844 103.705 16.8724 102.201 17.5313 100.697 18.1901 99.1146 18.5195 97.4531 18.5195L23.332 18.5195C21.6419 18.5195 20.0449 18.1973 18.541 17.5527 17.0371 16.9082 15.7266 16.0273 14.6094 14.9102 13.4922 13.793 12.6113 12.4824 11.9668 10.9785 11.3223 9.47461 11 7.8776 11 6.1875L11-58.6953 23.332-58.6953 23.332-80.3086Z" transform="translate(110.802 553)"/><path d="M17.1875-52.5078 34.2461-52.5078 34.2461 7.51953C33.9596 8.46484 33.3652 9.2526 32.4629 9.88281 31.5605 10.513 30.5508 11.0072 29.4336 11.3652 28.3164 11.7233 27.1992 11.974 26.082 12.1172 24.9648 12.2604 24.0482 12.332 23.332 12.332 22.4727 12.332 21.6706 12.1745 20.9258 11.8594 20.181 11.5443 19.5293 11.1074 18.9707 10.5488 18.4121 9.99023 17.9753 9.33854 17.6602 8.59375 17.3451 7.84896 17.1875 7.04687 17.1875 6.1875Z" fill="#CCCCCC" transform="translate(110.802 553)"/><path d="M29.5195-74.1211 103.641-74.1211 103.641 6.1875C103.641 7.04687 103.476 7.84896 103.146 8.59375 102.817 9.33854 102.373 9.99023 101.814 10.5488 101.256 11.1074 100.604 11.5443 99.8594 11.8594 99.1146 12.1745 98.3125 12.332 97.4531 12.332L23.5898 12.332C24.3919 12.3034 25.1582 12.1243 25.8887 11.7949 26.6191 11.4655 27.2493 11.0215 27.7793 10.4629 28.3092 9.9043 28.7318 9.25977 29.0469 8.5293 29.362 7.79883 29.5195 7.01823 29.5195 6.1875Z" fill="#F2F2F2" transform="translate(110.802 553)"/><path d="M35.707-61.7891 35.707-67.9336 97.4531-67.9336 97.4531-61.7891Z" fill="#00BCF2" transform="translate(110.802 553)"/><path d="M35.707-52.5078 35.707-55.6016 97.4531-55.6016 97.4531-52.5078Z" fill="#383838" transform="translate(110.802 553)"/><path d="M57.3203-46.3203 97.4531-46.3203 97.4531-15.4688 57.3203-15.4688ZM35.707 3.09375 35.707 0 97.4531 0 97.4531 3.09375ZM35.707-6.1875 35.707-9.28125 97.4531-9.28125 97.4531-6.1875ZM51.1328-46.3203 51.1328-43.2266 35.707-43.2266 35.707-46.3203ZM51.1328-37.082 51.1328-33.9883 35.707-33.9883 35.707-37.082ZM51.1328-27.8008 51.1328-24.707 35.707-24.707 35.707-27.8008ZM51.1328-18.5195 51.1328-15.4688 35.707-15.4688 35.707-18.5195Z" fill="#A6A6A6" transform="translate(110.802 553)"/><path d="M60.4141-18.5625 60.4141-43.2266 94.3594-43.2266 94.3594-18.5625Z" fill="#CCCCCC" transform="translate(110.802 553)"/></g></svg>