<svg width="212" height="187" xmlns="http://www.w3.org/2000/svg" xmlns:xlink="http://www.w3.org/1999/xlink" overflow="hidden"><defs><clipPath id="clip0"><rect x="316" y="280" width="212" height="187"/></clipPath></defs><g clip-path="url(#clip0)" transform="translate(-316 -280)"><path d="" fill="#24292E" transform="translate(369.5 393)"/><path d="M26.4258 18.5195C24.6784 18.5195 23.0527 18.1901 21.5488 17.5313 20.0449 16.8724 18.7415 15.9772 17.6387 14.8457 16.5358 13.7142 15.6693 12.3822 15.0391 10.8496 14.4089 9.31706 14.0938 7.69141 14.0938 5.97266 13.0911 4.97005 12.3249 3.81706 11.7949 2.51367 11.265 1.21029 11-0.143229 11-1.54688L11-66.4297C11-68.5495 11.5729-70.4902 12.7188-72.252 13.8646-74.0137 15.3971-75.3385 17.3164-76.2266 18.4909-77.5156 19.873-78.5182 21.4629-79.2344 23.0527-79.9505 24.707-80.3086 26.4258-80.3086L94.4023-80.3086 94.4023 18.5195Z" transform="translate(369.5 393)"/><path d="M32.6133-74.1211C33.043-73.7773 33.5586-73.3763 34.1602-72.918 34.7617-72.4596 35.3704-71.9941 35.9863-71.5215 36.6022-71.0488 37.1751-70.5762 37.7051-70.1035 38.235-69.6309 38.6576-69.2083 38.9727-68.8359 39.3737-68.349 39.7461-67.7832 40.0898-67.1387 40.4336-66.4941 40.7917-65.8997 41.1641-65.3555L85.1211 0 85.1211 12.332 26.4258 12.332C25.5664 12.332 24.7643 12.1745 24.0195 11.8594 23.2747 11.5443 22.623 11.1074 22.0645 10.5488 21.5059 9.99023 21.069 9.33854 20.7539 8.59375 20.4388 7.84896 20.2813 7.04687 20.2813 6.1875L20.2813 2.79297 18.0039-0.257813 20.2813-5.92969 20.2813-6.48828 17.875-9.45313 20.2813-15.168 20.2813-15.7266 17.918-18.9922 20.2813-24.4492 20.2813-25.0078 18.0039-27.8867 20.2813-33.6875 20.2813-34.2461 18.1328-37.0391C18.2474-37.2969 18.4264-37.7337 18.6699-38.3496 18.9134-38.9655 19.1497-39.61 19.3789-40.2832 19.6081-40.9564 19.8158-41.5866 20.002-42.1738 20.1882-42.7611 20.2813-43.1693 20.2813-43.3984 20.2813-43.4557 20.1738-43.6276 19.959-43.9141 19.7441-44.2005 19.5007-44.5085 19.2285-44.8379 18.9564-45.1673 18.6986-45.4824 18.4551-45.7832 18.2116-46.084 18.0612-46.2773 18.0039-46.3633L20.2813-52.25 20.2813-52.8086 17.9609-55.9453 20.2813-61.4883 20.2813-62.0469 18.0898-65.1406 18.6914-67.9336C18.8346-68.4492 19.1283-68.8574 19.5723-69.1582 20.0163-69.459 20.3815-69.8099 20.668-70.2109 20.7253-70.2969 20.7754-70.3756 20.8184-70.4473 20.8613-70.5189 20.9115-70.5833 20.9688-70.6406 21.3411-71.1849 21.6921-71.6719 22.0215-72.1016 22.3509-72.5313 22.7161-72.8965 23.1172-73.1973 23.5182-73.498 23.9766-73.7272 24.4922-73.8848 25.0078-74.0423 25.6523-74.1211 26.4258-74.1211Z" fill="#EBA300" transform="translate(369.5 393)"/><path d="M21.8281-6.1875C22.4583-6.1875 23.0599-6.06575 23.6328-5.82227 24.2057-5.57878 24.6927-5.24219 25.0938-4.8125 25.4948-4.38281 25.8171-3.88867 26.0605-3.33008 26.304-2.77148 26.4258-2.17708 26.4258-1.54688 26.4258-1.11719 26.2754-0.751953 25.9746-0.451172 25.6738-0.150391 25.3086 0 24.8789 0 24.306 0 23.9336-0.157552 23.7617-0.472656 23.5898-0.78776 23.4538-1.13867 23.3535-1.52539 23.2533-1.91211 23.11-2.27018 22.9238-2.59961 22.7376-2.92904 22.3724-3.09375 21.8281-3.09375 21.3984-3.09375 21.0332-2.94336 20.7324-2.64258 20.4316-2.3418 20.2813-1.97656 20.2813-1.54688L20.2813 2.79297C19.3646 2.47786 18.6198 1.92643 18.0469 1.13867 17.474 0.350911 17.1875-0.544271 17.1875-1.54688 17.1875-2.17708 17.3092-2.77865 17.5527-3.35156 17.7962-3.92448 18.1257-4.41862 18.541-4.83398 18.9564-5.24935 19.4434-5.57878 20.002-5.82227 20.5605-6.06575 21.1693-6.1875 21.8281-6.1875ZM21.8281-52.5078C22.4583-52.5078 23.0599-52.3861 23.6328-52.1426 24.2057-51.8991 24.6927-51.5625 25.0938-51.1328 25.4948-50.7031 25.8171-50.209 26.0605-49.6504 26.304-49.0918 26.4258-48.4974 26.4258-47.8672 26.4258-47.4375 26.2754-47.0723 25.9746-46.7715 25.6738-46.4707 25.3086-46.3203 24.8789-46.3203 24.306-46.3203 23.9336-46.4779 23.7617-46.793 23.5898-47.1081 23.4538-47.459 23.3535-47.8457 23.2533-48.2324 23.11-48.5905 22.9238-48.9199 22.7376-49.2493 22.3724-49.4141 21.8281-49.4141 21.3984-49.4141 21.0332-49.2637 20.7324-48.9629 20.4316-48.6621 20.2813-48.2969 20.2813-47.8672L20.2813-43.5273C19.3646-43.8424 18.6198-44.3939 18.0469-45.1816 17.474-45.9694 17.1875-46.8646 17.1875-47.8672 17.1875-48.4974 17.3092-49.099 17.5527-49.6719 17.7962-50.2448 18.1257-50.7389 18.541-51.1543 18.9564-51.5697 19.4434-51.8991 20.002-52.1426 20.5605-52.3861 21.1693-52.5078 21.8281-52.5078ZM21.8281-33.9883C22.4583-33.9883 23.0599-33.8665 23.6328-33.623 24.2057-33.3796 24.6927-33.043 25.0938-32.6133 25.4948-32.1836 25.8171-31.6895 26.0605-31.1309 26.304-30.5723 26.4258-29.9779 26.4258-29.3477 26.4258-28.918 26.2754-28.5527 25.9746-28.252 25.6738-27.9512 25.3086-27.8008 24.8789-27.8008 24.306-27.8008 23.9336-27.9583 23.7617-28.2734 23.5898-28.5885 23.4538-28.9395 23.3535-29.3262 23.2533-29.7129 23.11-30.071 22.9238-30.4004 22.7376-30.7298 22.3724-30.8945 21.8281-30.8945 21.3984-30.8945 21.0332-30.7441 20.7324-30.4434 20.4316-30.1426 20.2813-29.7773 20.2813-29.3477L20.2813-25.0078C19.3646-25.3229 18.6198-25.8743 18.0469-26.6621 17.474-27.4499 17.1875-28.3451 17.1875-29.3477 17.1875-29.9779 17.3092-30.5794 17.5527-31.1523 17.7962-31.7253 18.1257-32.2194 18.541-32.6348 18.9564-33.0501 19.4434-33.3796 20.002-33.623 20.5605-33.8665 21.1693-33.9883 21.8281-33.9883ZM21.8281-24.707C22.4583-24.707 23.0599-24.5853 23.6328-24.3418 24.2057-24.0983 24.6927-23.7617 25.0938-23.332 25.4948-22.9023 25.8171-22.4082 26.0605-21.8496 26.304-21.291 26.4258-20.6966 26.4258-20.0664 26.4258-19.6654 26.2682-19.3073 25.9531-18.9922 25.638-18.6771 25.2799-18.5195 24.8789-18.5195 24.306-18.5195 23.9336-18.6771 23.7617-18.9922 23.5898-19.3073 23.4538-19.6582 23.3535-20.0449 23.2533-20.4316 23.11-20.7897 22.9238-21.1191 22.7376-21.4486 22.3724-21.6133 21.8281-21.6133 21.3984-21.6133 21.0332-21.4629 20.7324-21.1621 20.4316-20.8613 20.2813-20.4961 20.2813-20.0664L20.2813-15.7266C19.3646-16.0417 18.6198-16.6003 18.0469-17.4023 17.474-18.2044 17.1875-19.0924 17.1875-20.0664 17.1875-20.6966 17.3092-21.2982 17.5527-21.8711 17.7962-22.444 18.1257-22.9382 18.541-23.3535 18.9564-23.7689 19.4434-24.0983 20.002-24.3418 20.5605-24.5853 21.1693-24.707 21.8281-24.707ZM21.8281-61.7891C22.4583-61.7891 23.0527-61.6673 23.6113-61.4238 24.1699-61.1803 24.6569-60.8438 25.0723-60.4141 25.4876-59.9844 25.8171-59.4902 26.0605-58.9316 26.304-58.373 26.4258-57.7786 26.4258-57.1484 26.4258-56.7188 26.2754-56.3535 25.9746-56.0527 25.6738-55.752 25.3086-55.6016 24.8789-55.6016 24.306-55.6016 23.9336-55.7591 23.7617-56.0742 23.5898-56.3893 23.4538-56.7402 23.3535-57.127 23.2533-57.5137 23.11-57.8717 22.9238-58.2012 22.7376-58.5306 22.3724-58.6953 21.8281-58.6953 21.3984-58.6953 21.0332-58.5449 20.7324-58.2441 20.4316-57.9434 20.2813-57.5781 20.2813-57.1484L20.2813-52.8086C19.3646-53.1237 18.6198-53.6751 18.0469-54.4629 17.474-55.2506 17.1875-56.1458 17.1875-57.1484 17.1875-57.7786 17.3092-58.373 17.5527-58.9316 17.7962-59.4902 18.1328-59.9844 18.5625-60.4141 18.9922-60.8438 19.4863-61.1803 20.0449-61.4238 20.6035-61.6673 21.1979-61.7891 21.8281-61.7891ZM20.2813-62.0469C19.3646-62.362 18.6198-62.9206 18.0469-63.7227 17.474-64.5247 17.1875-65.4271 17.1875-66.4297 17.1875-67.0599 17.3092-67.6615 17.5527-68.2344 17.7962-68.8073 18.1328-69.2943 18.5625-69.6953 18.9922-70.0964 19.4863-70.4186 20.0449-70.6621 20.6035-70.9056 21.1979-71.0273 21.8281-71.0273 22.4583-71.0273 23.0527-70.9056 23.6113-70.6621 24.1699-70.4186 24.6569-70.0892 25.0723-69.6738 25.4876-69.2585 25.8171-68.7715 26.0605-68.2129 26.304-67.6543 26.4258-67.0599 26.4258-66.4297 26.4258-66 26.2754-65.6348 25.9746-65.334 25.6738-65.0332 25.3086-64.8828 24.8789-64.8828 24.306-64.8828 23.9336-65.0404 23.7617-65.3555 23.5898-65.6706 23.4538-66.0215 23.3535-66.4082 23.2533-66.7949 23.11-67.1458 22.9238-67.4609 22.7376-67.776 22.3724-67.9336 21.8281-67.9336 21.4271-67.9336 21.069-67.7832 20.7539-67.4824 20.4388-67.1816 20.2813-66.8307 20.2813-66.4297ZM21.8281-15.4688C22.4583-15.4687 23.0527-15.347 23.6113-15.1035 24.1699-14.86 24.6569-14.5234 25.0723-14.0938 25.4876-13.6641 25.8171-13.1699 26.0605-12.6113 26.304-12.0527 26.4258-11.4583 26.4258-10.8281 26.4258-10.3984 26.2754-10.0332 25.9746-9.73242 25.6738-9.43164 25.3086-9.28125 24.8789-9.28125 24.306-9.28125 23.9336-9.4388 23.7617-9.75391 23.5898-10.069 23.4538-10.4199 23.3535-10.8066 23.2533-11.1934 23.11-11.5514 22.9238-11.8809 22.7376-12.2103 22.3724-12.375 21.8281-12.375 21.3984-12.375 21.0332-12.2246 20.7324-11.9238 20.4316-11.623 20.2813-11.2578 20.2813-10.8281L20.2813-6.48828C19.3646-6.80338 18.6198-7.36198 18.0469-8.16406 17.474-8.96615 17.1875-9.85417 17.1875-10.8281 17.1875-11.4583 17.3092-12.0527 17.5527-12.6113 17.7962-13.1699 18.1328-13.6641 18.5625-14.0938 18.9922-14.5234 19.4863-14.86 20.0449-15.1035 20.6035-15.347 21.1979-15.4687 21.8281-15.4688ZM21.8281-43.2266C22.4583-43.2266 23.0527-43.1048 23.6113-42.8613 24.1699-42.6178 24.6569-42.2884 25.0723-41.873 25.4876-41.4577 25.8171-40.9707 26.0605-40.4121 26.304-39.8535 26.4258-39.2591 26.4258-38.6289 26.4258-38.1992 26.2754-37.834 25.9746-37.5332 25.6738-37.2324 25.3086-37.082 24.8789-37.082 24.306-37.082 23.9336-37.2396 23.7617-37.5547 23.5898-37.8698 23.4538-38.2207 23.3535-38.6074 23.2533-38.9941 23.11-39.3522 22.9238-39.6816 22.7376-40.0111 22.3724-40.1758 21.8281-40.1758 21.4271-40.1758 21.069-40.0182 20.7539-39.7031 20.4388-39.388 20.2813-39.0299 20.2813-38.6289L20.2813-34.2461C19.3646-34.5612 18.6198-35.1198 18.0469-35.9219 17.474-36.724 17.1875-37.6263 17.1875-38.6289 17.1875-39.2591 17.3092-39.8607 17.5527-40.4336 17.7962-41.0065 18.1328-41.4935 18.5625-41.8945 18.9922-42.2956 19.4863-42.6178 20.0449-42.8613 20.6035-43.1048 21.1979-43.2266 21.8281-43.2266Z" fill="#CCCCCC" transform="translate(369.5 393)"/><path d="M88.2148 3.09375 82.0273 3.09375 78.4609 7.64844 32.6992 7.64844 32.6992-74.1211 88.2148-74.1211Z" fill="#FFB900" transform="translate(369.5 393)"/><path d="M26.4258 9.23828C25.5951 9.23828 24.8717 8.9375 24.2559 8.33594 23.64 7.73438 23.332 7.01823 23.332 6.1875 23.332 5.35677 23.64 4.63346 24.2559 4.01758 24.8717 3.40169 25.5951 3.09375 26.4258 3.09375L82.0273 3.09375 82.0273 9.23828Z" fill="#FFFFFF" transform="translate(369.5 393)"/></g></svg>