<svg width="215" height="186" xmlns="http://www.w3.org/2000/svg" xmlns:xlink="http://www.w3.org/1999/xlink" overflow="hidden"><defs><clipPath id="clip0"><rect x="476" y="496" width="215" height="186"/></clipPath></defs><g clip-path="url(#clip0)" transform="translate(-476 -496)"><path d="" fill="#24292E" transform="translate(529.057 609)"/><path d="M11-9.28125 11-52.5078 54.2266-80.3086 97.4531-52.5078 97.4531-9.28125 54.2266 18.5195Z" transform="translate(529.057 609)"/><path d="M54.2266 12.332 45.5469-25.1367 54.2266-49.4141 91.3086-49.4141 91.3086-12.375Z" fill="#CCCCCC" transform="translate(529.057 609)"/><path d="M54.2266 12.332 17.1875-12.375 17.1875-49.4141 54.2266-49.4141Z" fill="#E5E5E5" transform="translate(529.057 609)"/><path d="M78.9336-33.9883C78.9336-34.8477 79.0983-35.6497 79.4277-36.3945 79.7572-37.1393 80.2012-37.791 80.7598-38.3496 81.3184-38.9082 81.97-39.3522 82.7148-39.6816 83.4596-40.0111 84.2617-40.1758 85.1211-40.1758 85.9518-40.1758 86.6751-39.8678 87.291-39.252 87.9069-38.6361 88.2148-37.9128 88.2148-37.082 88.2148-36.2227 88.0501-35.4134 87.7207-34.6543 87.3913-33.8952 86.9473-33.2363 86.3887-32.6777 85.8301-32.1191 85.1784-31.6823 84.4336-31.3672 83.6888-31.0521 82.8867-30.8945 82.0273-30.8945 81.168-30.8945 80.4375-31.1953 79.8359-31.7969 79.2344-32.3984 78.9336-33.1289 78.9336-33.9883ZM68.1484-17.0156C68.1484-17.875 68.306-18.6771 68.6211-19.4219 68.9362-20.1667 69.373-20.8184 69.9316-21.377 70.4902-21.9355 71.1419-22.3724 71.8867-22.6875 72.6315-23.0026 73.4336-23.1602 74.293-23.1602 75.1523-23.1602 75.8828-22.8594 76.4844-22.2578 77.0859-21.6563 77.3867-20.9258 77.3867-20.0664 77.3867-19.207 77.2292-18.4049 76.9141-17.6602 76.599-16.9154 76.1621-16.2637 75.6035-15.7051 75.0449-15.1465 74.3932-14.7096 73.6484-14.3945 72.9036-14.0794 72.1016-13.9219 71.2422-13.9219 70.3828-13.9219 69.6523-14.2227 69.0508-14.8242 68.4492-15.4258 68.1484-16.1563 68.1484-17.0156ZM57.3203 0C57.3203-0.859375 57.4779-1.66146 57.793-2.40625 58.1081-3.15104 58.5449-3.80273 59.1035-4.36133 59.6621-4.91992 60.321-5.36393 61.0801-5.69336 61.8392-6.02279 62.6484-6.1875 63.5078-6.1875 64.3672-6.1875 65.0977-5.88672 65.6992-5.28516 66.3008-4.68359 66.6016-3.95312 66.6016-3.09375 66.6016-2.23438 66.4368-1.43229 66.1074-0.6875 65.778 0.0572916 65.334 0.708984 64.7754 1.26758 64.2168 1.82617 63.5651 2.27018 62.8203 2.59961 62.0755 2.92904 61.2734 3.09375 60.4141 3.09375 59.5547 3.09375 58.8242 2.79297 58.2227 2.19141 57.6211 1.58984 57.3203 0.859375 57.3203 0Z" fill="#1F1F1F" transform="translate(529.057 609)"/><path d="M32.6133-27.8008C32.6133-26.9414 32.3125-26.2109 31.7109-25.6094 31.1094-25.0078 30.3789-24.707 29.5195-24.707 28.6602-24.707 27.8581-24.8717 27.1133-25.2012 26.3685-25.5306 25.7168-25.9746 25.1582-26.5332 24.5996-27.0918 24.1556-27.7435 23.8262-28.4883 23.4967-29.2331 23.332-30.0352 23.332-30.8945 23.332-31.7253 23.64-32.4486 24.2559-33.0645 24.8717-33.6803 25.5951-33.9883 26.4258-33.9883 27.2852-33.9883 28.0872-33.8236 28.832-33.4941 29.5768-33.1647 30.2285-32.7207 30.7871-32.1621 31.3457-31.6035 31.7897-30.9518 32.1191-30.207 32.4486-29.4622 32.6133-28.6602 32.6133-27.8008ZM48.0391-6.1875C48.0391-5.35677 47.7383-4.63346 47.1367-4.01758 46.5352-3.40169 45.819-3.09375 44.9883-3.09375 44.1289-3.09375 43.3197-3.2513 42.5605-3.56641 41.8014-3.88151 41.1426-4.31836 40.584-4.87695 40.0254-5.43555 39.5885-6.0944 39.2734-6.85352 38.9583-7.61263 38.8008-8.42188 38.8008-9.28125 38.8008-10.1406 39.1016-10.8711 39.7031-11.4727 40.3047-12.0742 41.0352-12.375 41.8945-12.375 42.7539-12.375 43.556-12.2103 44.3008-11.8809 45.0456-11.5514 45.6973-11.1074 46.2559-10.5488 46.8145-9.99023 47.2513-9.33854 47.5664-8.59375 47.8815-7.84896 48.0391-7.04687 48.0391-6.1875Z" fill="#2B2B2B" transform="translate(529.057 609)"/><path d="M17.1875-49.4141 54.2266-74.1211 91.3086-49.4141 54.2266-24.707Z" fill="#FFFFFF" transform="translate(529.057 609)"/><path d="M48.0391-49.4141C48.0391-50.1589 48.2396-50.8177 48.6406-51.3906 49.0417-51.9635 49.5501-52.4505 50.166-52.8516 50.7819-53.2526 51.4479-53.5534 52.1641-53.7539 52.8802-53.9544 53.5677-54.0547 54.2266-54.0547 54.8568-54.0547 55.5371-53.9544 56.2676-53.7539 56.998-53.5534 57.6712-53.2526 58.2871-52.8516 58.903-52.4505 59.4115-51.9635 59.8125-51.3906 60.2135-50.8177 60.4141-50.1589 60.4141-49.4141 60.4141-48.6693 60.2135-48.0104 59.8125-47.4375 59.4115-46.8646 58.903-46.3776 58.2871-45.9766 57.6712-45.5755 56.998-45.2747 56.2676-45.0742 55.5371-44.8737 54.8568-44.7734 54.2266-44.7734 53.5677-44.7734 52.8802-44.8737 52.1641-45.0742 51.4479-45.2747 50.7819-45.5755 50.166-45.9766 49.5501-46.3776 49.0417-46.8646 48.6406-47.4375 48.2396-48.0104 48.0391-48.6693 48.0391-49.4141Z" fill="#AF0D1A" transform="translate(529.057 609)"/></g></svg>