<svg width="228" height="186" xmlns="http://www.w3.org/2000/svg" xmlns:xlink="http://www.w3.org/1999/xlink" overflow="hidden"><defs><clipPath id="clip0"><rect x="934" y="122" width="228" height="186"/></clipPath></defs><g clip-path="url(#clip0)" transform="translate(-934 -122)"><path d="" fill="#333333" transform="translate(987.732 234)"/><path d="M99-80.3086C100.49-80.3086 101.893-80.0221 103.211-79.4492 104.529-78.8763 105.674-78.1029 106.648-77.1289 107.622-76.1549 108.396-75.0091 108.969-73.6914 109.542-72.3737 109.828-70.97 109.828-69.4805 109.828-68.0768 109.563-66.7233 109.033-65.4199 108.503-64.1165 107.737-62.9635 106.734-61.9609L106.734-33.9883C106.734-31.7539 106.183-29.6914 105.08-27.8008 103.977-25.9102 102.466-24.4063 100.547-23.2891L100.547-21.6133C100.547-17.918 100.067-14.3659 99.1074-10.957 98.1478-7.54818 96.7943-4.35417 95.0469-1.375 93.2995 1.60417 91.2083 4.3112 88.7734 6.74609 86.3385 9.18099 83.6315 11.2721 80.6523 13.0195 77.6732 14.7669 74.4792 16.1204 71.0703 17.0801 67.6615 18.0397 64.1094 18.5195 60.4141 18.5195 56.7188 18.5195 53.1667 18.0397 49.7578 17.0801 46.349 16.1204 43.1549 14.7669 40.1758 13.0195 37.1966 11.2721 34.4896 9.18099 32.0547 6.74609 29.6198 4.3112 27.5286 1.60417 25.7813-1.375 24.0339-4.35417 22.6803-7.54818 21.7207-10.957 20.7611-14.3659 20.2813-17.918 20.2813-21.6133L20.2813-23.2891C18.362-24.4063 16.8509-25.9102 15.748-27.8008 14.6452-29.6914 14.0938-31.7539 14.0938-33.9883L14.0938-61.9609C13.0911-62.9635 12.3249-64.1165 11.7949-65.4199 11.265-66.7233 11-68.0768 11-69.4805 11-70.97 11.2865-72.3737 11.8594-73.6914 12.4323-75.0091 13.2057-76.1549 14.1797-77.1289 15.1536-78.1029 16.2995-78.8763 17.6172-79.4492 18.9349-80.0221 20.3385-80.3086 21.8281-80.3086 23.3177-80.3086 24.7142-80.0221 26.0176-79.4492 27.321-78.8763 28.4596-78.0957 29.4336-77.1074 30.4076-76.1191 31.181-74.9733 31.7539-73.6699 32.3268-72.3665 32.6133-70.97 32.6133-69.4805 32.6133-68.6211 32.513-67.7689 32.3125-66.9238 32.112-66.0788 31.8112-65.2839 31.4102-64.5391L31.5391-63.9805C33.5443-65.2982 35.6855-66.2865 37.9629-66.9453 40.2402-67.6042 42.582-67.9336 44.9883-67.9336L75.8398-67.9336C78.2461-67.9336 80.5879-67.6042 82.8652-66.9453 85.1426-66.2865 87.2839-65.2982 89.2891-63.9805L89.418-64.5391C89.0169-65.2839 88.7161-66.0788 88.5156-66.9238 88.3151-67.7689 88.2148-68.6211 88.2148-69.4805 88.2148-70.97 88.5013-72.3665 89.0742-73.6699 89.6471-74.9733 90.4206-76.1191 91.3945-77.1074 92.3685-78.0957 93.5072-78.8763 94.8105-79.4492 96.1139-80.0221 97.5104-80.3086 99-80.3086Z" transform="translate(987.732 234)"/><path d="M99-74.1211C99.6302-74.1211 100.232-73.9993 100.805-73.7559 101.378-73.5124 101.872-73.1829 102.287-72.7676 102.702-72.3522 103.032-71.8581 103.275-71.2852 103.519-70.7122 103.641-70.1107 103.641-69.4805 103.641-68.5065 103.354-67.6185 102.781-66.8164 102.208-66.0143 101.464-65.4557 100.547-65.1406L100.547-33.9883C100.547-33.1289 100.389-32.3268 100.074-31.582 99.7591-30.8372 99.3223-30.1855 98.7637-29.627 98.2051-29.0684 97.5534-28.6243 96.8086-28.2949 96.0638-27.9655 95.2617-27.8008 94.4023-27.8008L91.3086-27.8008 91.3086-46.3203C91.3086-46.6068 91.3516-46.9505 91.4375-47.3516 91.5234-47.7526 91.6309-48.168 91.7598-48.5977 91.8887-49.0273 92.0104-49.4427 92.125-49.8438 92.2396-50.2448 92.3398-50.6029 92.4258-50.918 93.0273-53.4388 93.6432-55.9381 94.2734-58.416 94.9036-60.8939 95.5195-63.3932 96.1211-65.9141 95.5768-66.3438 95.1543-66.8737 94.8535-67.5039 94.5527-68.1341 94.4023-68.793 94.4023-69.4805 94.4023-70.1107 94.5241-70.7051 94.7676-71.2637 95.0111-71.8223 95.3405-72.3164 95.7559-72.7461 96.1712-73.1758 96.6582-73.5124 97.2168-73.7559 97.7754-73.9993 98.3698-74.1211 99-74.1211ZM29.5195-27.8008 26.4258-27.8008C25.5664-27.8008 24.7643-27.9655 24.0195-28.2949 23.2747-28.6243 22.623-29.0684 22.0645-29.627 21.5059-30.1855 21.069-30.8372 20.7539-31.582 20.4388-32.3268 20.2813-33.1289 20.2813-33.9883L20.2813-65.1406C19.3646-65.4557 18.6198-66.0143 18.0469-66.8164 17.474-67.6185 17.1875-68.5065 17.1875-69.4805 17.1875-70.1107 17.3092-70.7122 17.5527-71.2852 17.7962-71.8581 18.1257-72.3522 18.541-72.7676 18.9564-73.1829 19.4434-73.5124 20.002-73.7559 20.5605-73.9993 21.1693-74.1211 21.8281-74.1211 22.4583-74.1211 23.0527-73.9993 23.6113-73.7559 24.1699-73.5124 24.6569-73.1758 25.0723-72.7461 25.4876-72.3164 25.8171-71.8223 26.0605-71.2637 26.304-70.7051 26.4258-70.1107 26.4258-69.4805 26.4258-68.793 26.2754-68.1341 25.9746-67.5039 25.6738-66.8737 25.2513-66.3438 24.707-65.9141 25.3086-63.3932 25.9245-60.8939 26.5547-58.416 27.1849-55.9381 27.8008-53.4388 28.4023-50.918 28.4883-50.6029 28.5885-50.2448 28.7031-49.8438 28.8177-49.4427 28.9395-49.0273 29.0684-48.5977 29.1973-48.168 29.3047-47.7526 29.3906-47.3516 29.4766-46.9505 29.5195-46.6068 29.5195-46.3203Z" fill="#757575" transform="translate(987.732 234)"/><path d="M75.8398-61.7891C78.418-61.7891 80.8314-61.3021 83.0801-60.3281 85.3288-59.3542 87.291-58.0293 88.9668-56.3535 90.6426-54.6777 91.9674-52.7155 92.9414-50.4668 93.9154-48.2181 94.4023-45.8047 94.4023-43.2266L94.4023-21.6133C93.2279-19.1784 91.9889-16.7793 90.6855-14.416 89.3822-12.0527 88.0573-9.69661 86.7109-7.34766 85.3646-4.9987 84.0325-2.64974 82.7148-0.300781 81.3971 2.04818 80.1367 4.42578 78.9336 6.83203 76.1549 8.63672 73.1973 10.0046 70.0605 10.9355 66.9238 11.8665 63.7083 12.332 60.4141 12.332 57.1198 12.332 53.8971 11.8665 50.7461 10.9355 47.5951 10.0046 44.6302 8.63672 41.8516 6.83203 40.6198 4.6263 39.3665 2.44922 38.0918 0.300781 36.8171-1.84766 35.5352-4.01042 34.2461-6.1875 32.7852-8.70833 31.4173-11.2507 30.1426-13.8145 28.8678-16.3783 27.6289-18.9779 26.4258-21.6133L26.4258-43.2266C26.4258-45.8047 26.9128-48.2181 27.8867-50.4668 28.8607-52.7155 30.1855-54.6777 31.8613-56.3535 33.5371-58.0293 35.4993-59.3542 37.748-60.3281 39.9967-61.3021 42.4102-61.7891 44.9883-61.7891Z" fill="#CCCCCC" transform="translate(987.732 234)"/><path d="M39.3164-9.49609C40.1471-8.63672 40.7845-7.6556 41.2285-6.55273 41.6725-5.44987 41.8945-4.29688 41.8945-3.09375L41.8945 6.83203C39.4883 5.25651 37.3255 3.43034 35.4063 1.35352 33.487-0.723307 31.8613-2.97917 30.5293-5.41406 29.1973-7.84896 28.1803-10.4342 27.4785-13.1699 26.7767-15.9056 26.4258-18.7201 26.4258-21.6133ZM78.9336-3.09375C78.9336-4.23958 79.1556-5.39258 79.5996-6.55273 80.0436-7.71289 80.681-8.69401 81.5117-9.49609L94.4023-21.6133C94.4023-18.7487 94.0443-15.9486 93.3281-13.2129 92.612-10.4772 91.5879-7.88477 90.2559-5.43555 88.9238-2.98633 87.3053-0.723307 85.4004 1.35352 83.4954 3.43034 81.3398 5.25651 78.9336 6.83203Z" fill="#757575" transform="translate(987.732 234)"/><path d="M44.9883-61.7891 75.8398-61.7891 75.8398-40.1758 59.3398-35.8789 44.9883-40.1758Z" fill="#FFFFFF" transform="translate(987.732 234)"/><path d="M83.5742-40.1758C84.2044-40.1758 84.7988-40.054 85.3574-39.8105 85.916-39.5671 86.4102-39.2305 86.8398-38.8008 87.2695-38.3711 87.6061-37.877 87.8496-37.3184 88.0931-36.7598 88.2148-36.1654 88.2148-35.5352L88.2148-23.1602C88.2148-22.5299 88.0931-21.9355 87.8496-21.377 87.6061-20.8184 87.2695-20.3242 86.8398-19.8945 86.4102-19.4648 85.916-19.1283 85.3574-18.8848 84.7988-18.6413 84.2044-18.5195 83.5742-18.5195L37.2539-18.5195C36.6237-18.5195 36.0293-18.6413 35.4707-18.8848 34.9121-19.1283 34.418-19.4648 33.9883-19.8945 33.5586-20.3242 33.222-20.8184 32.9785-21.377 32.735-21.9355 32.6133-22.5299 32.6133-23.1602L32.6133-35.5352C32.6133-36.1654 32.735-36.7598 32.9785-37.3184 33.222-37.877 33.5586-38.3711 33.9883-38.8008 34.418-39.2305 34.9121-39.5671 35.4707-39.8105 36.0293-40.054 36.6237-40.1758 37.2539-40.1758ZM48.0391-3.09375 48.0391-9.28125 72.7461-9.28125 72.7461-3.09375Z" transform="translate(987.732 234)"/><path d="M43.4414-37.082C44.0716-37.082 44.666-36.9603 45.2246-36.7168 45.7832-36.4733 46.2702-36.1367 46.6855-35.707 47.1009-35.2773 47.4303-34.7832 47.6738-34.2246 47.9173-33.666 48.0391-33.0716 48.0391-32.4414L48.0391-26.2539C48.0391-25.6237 47.9173-25.0293 47.6738-24.4707 47.4303-23.9121 47.1009-23.418 46.6855-22.9883 46.2702-22.5586 45.7832-22.222 45.2246-21.9785 44.666-21.735 44.0716-21.6133 43.4414-21.6133 42.8112-21.6133 42.2168-21.735 41.6582-21.9785 41.0996-22.222 40.6055-22.5586 40.1758-22.9883 39.7461-23.418 39.4095-23.9121 39.166-24.4707 38.9225-25.0293 38.8008-25.6237 38.8008-26.2539L38.8008-32.4414C38.8008-33.0716 38.9225-33.666 39.166-34.2246 39.4095-34.7832 39.7461-35.2773 40.1758-35.707 40.6055-36.1367 41.0996-36.4733 41.6582-36.7168 42.2168-36.9603 42.8112-37.082 43.4414-37.082ZM77.3867-37.082C78.0169-37.082 78.6113-36.9603 79.1699-36.7168 79.7285-36.4733 80.2227-36.1367 80.6523-35.707 81.082-35.2773 81.4186-34.7832 81.6621-34.2246 81.9056-33.666 82.0273-33.0716 82.0273-32.4414L82.0273-26.2539C82.0273-25.6237 81.9056-25.0293 81.6621-24.4707 81.4186-23.9121 81.082-23.418 80.6523-22.9883 80.2227-22.5586 79.7285-22.222 79.1699-21.9785 78.6113-21.735 78.0169-21.6133 77.3867-21.6133 76.7565-21.6133 76.1621-21.735 75.6035-21.9785 75.0449-22.222 74.5508-22.5586 74.1211-22.9883 73.6914-23.418 73.3548-23.9121 73.1113-24.4707 72.8678-25.0293 72.7461-25.6237 72.7461-26.2539L72.7461-32.4414C72.7461-33.0716 72.8678-33.666 73.1113-34.2246 73.3548-34.7832 73.6914-35.2773 74.1211-35.707 74.5508-36.1367 75.0449-36.4733 75.6035-36.7168 76.1621-36.9603 76.7565-37.082 77.3867-37.082Z" fill="#31D2F7" transform="translate(987.732 234)"/><path d="M54.2266-61.7891 66.6016-61.7891 66.6016-49.4141C66.6016-48.5547 66.4368-47.7526 66.1074-47.0078 65.778-46.263 65.334-45.6113 64.7754-45.0527 64.2168-44.4941 63.5651-44.0501 62.8203-43.7207 62.0755-43.3913 61.2734-43.2266 60.4141-43.2266 59.5547-43.2266 58.7526-43.3913 58.0078-43.7207 57.263-44.0501 56.6113-44.4941 56.0527-45.0527 55.4941-45.6113 55.0501-46.263 54.7207-47.0078 54.3913-47.7526 54.2266-48.5547 54.2266-49.4141Z" fill="#F03A17" transform="translate(987.732 234)"/></g></svg>