<svg width="228" height="187" xmlns="http://www.w3.org/2000/svg" xmlns:xlink="http://www.w3.org/1999/xlink" overflow="hidden"><defs><clipPath id="clip0"><rect x="766" y="280" width="228" height="187"/></clipPath></defs><g clip-path="url(#clip0)" transform="translate(-766 -280)"><path d="" fill="#333333" transform="translate(819.311 393)"/><path d="M95.6484 15.4258C94.4167 15.4258 93.235 15.1895 92.1035 14.7168 90.972 14.2441 89.9766 13.5781 89.1172 12.7188L61.9609-14.4375 51.1328-3.60938C51.1328-0.973958 50.6673 1.49674 49.7363 3.80273 48.8053 6.10872 47.5163 8.12109 45.8691 9.83984 44.222 11.5586 42.2669 12.9193 40.0039 13.9219 37.7409 14.9245 35.2773 15.4258 32.6133 15.4258 30.0638 15.4258 27.6647 14.9388 25.416 13.9648 23.1673 12.9909 21.2051 11.666 19.5293 9.99023 17.8535 8.31445 16.5286 6.35221 15.5547 4.10352 14.5807 1.85482 14.0938-0.544271 14.0938-3.09375 14.0938-5.75781 14.5951-8.22135 15.5977-10.4844 16.6003-12.7474 17.9609-14.7025 19.6797-16.3496 21.3984-17.9967 23.4108-19.2858 25.7168-20.2168 28.0228-21.1478 30.4935-21.6133 33.1289-21.6133L45.5039-33.9883 43.4414-36.0508 41.4648-34.0742 38.6719-37.4688 31.7109-30.5078C30.8516-29.6484 29.849-28.9824 28.7031-28.5098 27.5573-28.0371 26.3828-27.8008 25.1797-27.8008 22.6589-27.8008 20.4674-28.7031 18.6055-30.5078L13.707-35.4063C11.9023-37.2682 11-39.4596 11-41.9805 11-43.2122 11.2363-44.3939 11.709-45.5254 12.1816-46.6569 12.8477-47.6523 13.707-48.5117L20.7969-55.6016 23.7188-55.6016 23.9336-56.375C23.5326-57.349 23.332-58.3372 23.332-59.3398 23.332-60.3997 23.5254-61.388 23.9121-62.3047 24.2988-63.2214 24.8646-64.0521 25.6094-64.7969L29.6055-68.793C31.1523-70.2825 32.9714-71.0273 35.0625-71.0273 35.5495-71.0273 36.0365-70.9844 36.5234-70.8984 40.4766-73.9349 44.709-76.2624 49.2207-77.8809 53.7324-79.4993 58.4948-80.3086 63.5078-80.3086L69.6953-80.3086 69.6953-74.1211C69.6953-72.832 69.4518-71.6289 68.9648-70.5117 68.4779-69.3945 67.8118-68.4206 66.9668-67.5898 66.1217-66.7591 65.1406-66.1003 64.0234-65.6133 62.9063-65.1263 61.7031-64.8828 60.4141-64.8828 59.5547-64.8828 58.7526-64.7181 58.0078-64.3887 57.263-64.0592 56.6113-63.6152 56.0527-63.0566 55.4941-62.498 55.0501-61.8464 54.7207-61.1016 54.3913-60.3568 54.2266-59.5547 54.2266-58.6953 54.2266-58.3516 54.3125-58.0794 54.4844-57.8789 54.6563-57.6784 54.8568-57.4779 55.0859-57.2773L60.3281-52.9375 58.3516-50.9609 60.4141-48.8984 69.6953-58.1797C69.6953-60.7865 70.1608-63.25 71.0918-65.5703 72.0228-67.8906 73.3118-69.9102 74.959-71.6289 76.6061-73.3477 78.5612-74.7083 80.8242-75.7109 83.0872-76.7135 85.5508-77.2148 88.2148-77.2148 90.7643-77.2148 93.1634-76.7279 95.4121-75.7539 97.6608-74.7799 99.623-73.4551 101.299-71.7793 102.975-70.1035 104.299-68.1413 105.273-65.8926 106.247-63.6439 106.734-61.2448 106.734-58.6953 106.734-56.0313 106.233-53.5677 105.23-51.3047 104.228-49.0417 102.867-47.0866 101.148-45.4395 99.4297-43.7923 97.4102-42.5033 95.0898-41.5723 92.7695-40.6413 90.306-40.1758 87.6992-40.1758L79.9648-32.4414 107.121-5.28516C107.98-4.42578 108.646-3.42318 109.119-2.27734 109.592-1.13151 109.828 0.0572917 109.828 1.28906 109.828 2.52083 109.592 3.70247 109.119 4.83398 108.646 5.96549 107.98 6.96094 107.121 7.82031L102.223 12.7188C100.361 14.5234 98.1693 15.4258 95.6484 15.4258Z" transform="translate(819.311 393)"/><path d="M99.4297-63.7656C100.174-62.1328 100.547-60.4427 100.547-58.6953 100.547-56.9766 100.225-55.3652 99.5801-53.8613 98.9355-52.3574 98.0547-51.0469 96.9375-49.9297 95.8203-48.8125 94.5169-47.9316 93.0273-47.2871 91.5378-46.6426 89.9336-46.3203 88.2148-46.3203 87.3268-46.3203 86.3958-46.4349 85.4219-46.6641L44.6445-5.88672C44.8737-4.91276 44.9883-3.98177 44.9883-3.09375 44.9883-1.375 44.666 0.229167 44.0215 1.71875 43.377 3.20833 42.4961 4.51172 41.3789 5.62891 40.2617 6.74609 38.9512 7.62695 37.4473 8.27148 35.9434 8.91602 34.332 9.23828 32.6133 9.23828 30.8945 9.23828 29.2044 8.88021 27.543 8.16406L35.707 0 35.707-3.09375 32.6133-6.1875 29.5195-6.1875 21.3555 1.97656C20.6393 0.315104 20.2813-1.375 20.2813-3.09375 20.2813-4.8125 20.6035-6.42383 21.248-7.92773 21.8926-9.43164 22.7734-10.7422 23.8906-11.8594 25.0078-12.9766 26.3112-13.8574 27.8008-14.502 29.2904-15.1465 30.8945-15.4687 32.6133-15.4688 33.5013-15.4687 34.4323-15.3542 35.4063-15.125L76.1836-55.9023C75.9544-56.8763 75.8398-57.8073 75.8398-58.6953 75.8398-60.4141 76.1621-62.0182 76.8066-63.5078 77.4512-64.9974 78.332-66.3008 79.4492-67.418 80.5664-68.5352 81.877-69.416 83.3809-70.0605 84.8848-70.7051 86.4961-71.0273 88.2148-71.0273 89.9622-71.0273 91.6523-70.6549 93.2852-69.9102L85.1211-61.7891 85.1211-58.6953 88.2148-55.6016 91.3086-55.6016Z" fill="#E5E5E5" transform="translate(819.311 393)"/><path d="M95.6484 9.23828C94.8177 9.23828 94.1016 8.9375 93.5 8.33594L66.6016-18.5195C66.3151-18.806 66.043-19.2357 65.7852-19.8086 65.5273-20.3815 65.2767-20.9902 65.0332-21.6348 64.7897-22.2793 64.5391-22.888 64.2813-23.4609 64.0234-24.0339 63.7656-24.4492 63.5078-24.707L29.9922-58.2227C29.6771-58.5378 29.5195-58.8958 29.5195-59.2969 29.5195-59.7266 29.6771-60.099 29.9922-60.4141L33.9883-64.4102C34.2747-64.6966 34.6328-64.8398 35.0625-64.8398 35.4922-64.8398 35.8503-64.6966 36.1367-64.4102L69.6953-30.8945C70.0677-30.5221 70.526-30.2214 71.0703-29.9922 71.6146-29.763 72.1803-29.5482 72.7676-29.3477 73.3548-29.1471 73.9206-28.9323 74.4648-28.7031 75.0091-28.474 75.4674-28.1732 75.8398-27.8008L102.738-0.902344C103.34-0.300781 103.641 0.429688 103.641 1.28906 103.641 2.11979 103.34 2.83594 102.738 3.4375L97.8398 8.33594C97.2383 8.9375 96.5078 9.23828 95.6484 9.23828Z" fill="#EBA300" transform="translate(819.311 393)"/><path d="M63.5078-74.1211C63.5078-73.2617 63.207-72.5313 62.6055-71.9297 62.0039-71.3281 61.2734-71.0273 60.4141-71.0273 58.6953-71.0273 57.084-70.7051 55.5801-70.0605 54.0762-69.416 52.7656-68.5352 51.6484-67.418 50.5313-66.3008 49.6504-64.9974 49.0059-63.5078 48.3613-62.0182 48.0391-60.4141 48.0391-58.6953 48.0391-57.4635 48.3255-56.3177 48.8984-55.2578 49.4714-54.1979 50.2161-53.2813 51.1328-52.5078L41.8945-43.2266C41.0638-44.1719 40.1328-44.9238 39.1016-45.4824 38.0703-46.041 36.9102-46.3203 35.6211-46.3203 34.9336-46.3203 34.3893-46.1842 33.9883-45.9121 33.5872-45.64 33.2865-45.2819 33.0859-44.8379 32.8854-44.3939 32.7565-43.8926 32.6992-43.334 32.6419-42.7754 32.6133-42.224 32.6133-41.6797L32.6133-40.1758 27.3281-34.8906C26.7266-34.2891 25.9961-33.9883 25.1367-33.9883 24.306-33.9883 23.5898-34.2891 22.9883-34.8906L18.0898-39.7891C17.4883-40.3906 17.1875-41.1211 17.1875-41.9805 17.1875-42.8398 17.4883-43.5703 18.0898-44.1719L23.332-49.4141 26.4258-49.4141C27.4284-49.4141 28.1589-49.722 28.6172-50.3379 29.0755-50.9538 29.3763-51.7057 29.5195-52.5938 29.6341-53.3958 29.763-54.0547 29.9063-54.5703 30.0495-55.0859 30.2285-55.5514 30.4434-55.9668 30.6582-56.3822 30.9375-56.7975 31.2813-57.2129 31.625-57.6283 32.069-58.1224 32.6133-58.6953 33.4154-59.5547 34.2103-60.4284 34.998-61.3164 35.7858-62.2044 36.6237-63.0352 37.5117-63.8086 41.2357-67.0742 45.2533-69.6094 49.5645-71.4141 53.8756-73.2188 58.5234-74.1211 63.5078-74.1211Z" fill="#CCCCCC" transform="translate(819.311 393)"/></g></svg>