<svg width="870" height="445" xmlns="http://www.w3.org/2000/svg" xmlns:xlink="http://www.w3.org/1999/xlink" overflow="hidden"><defs><clipPath id="clip0"><rect x="29" y="175" width="870" height="445"/></clipPath><clipPath id="clip1"><rect x="284" y="437" width="77" height="76"/></clipPath><clipPath id="clip2"><rect x="284" y="437" width="77" height="76"/></clipPath><clipPath id="clip3"><rect x="284" y="437" width="77" height="76"/></clipPath></defs><g clip-path="url(#clip0)" transform="translate(-29 -175)"><rect x="30" y="176" width="867" height="444" fill="#FFFFFF"/><rect x="309.5" y="517.5" width="550" height="62" stroke="#000000" stroke-width="1.33333" stroke-miterlimit="8" fill="#FFFFFF"/><rect x="670.5" y="208.5" width="191" height="218" stroke="#000000" stroke-width="1.33333" stroke-miterlimit="8" fill="#FFFFFF"/><text font-family="KoPubWorldDotum,KoPubWorldDotum_MSFontService,sans-serif" font-weight="500" font-size="24" transform="translate(701.899 242)">Background<tspan font-size="21" x="10.0867" y="31">(</tspan><tspan font-size="21" x="16.7533" y="31">백그라운드</tspan><tspan font-size="21" x="110.087" y="31">)</tspan></text><rect x="679.5" y="325.5" width="172" height="40" stroke="#000000" stroke-width="1.33333" stroke-miterlimit="8" fill="#DAE3F3"/><text font-family="NanumGothicCoding,NanumGothicCoding_MSFontService,sans-serif" font-weight="400" font-size="24" transform="translate(705.322 353)">타이머<tspan x="84" y="0">3</tspan>초</text><rect x="317.5" y="528.5" width="172" height="40" stroke="#000000" stroke-width="1.33333" stroke-miterlimit="8" fill="#DAE3F3"/><text font-family="NanumGothicCoding,NanumGothicCoding_MSFontService,sans-serif" font-weight="400" font-size="24" transform="translate(373.014 557)">run()<tspan x="-5.62799" y="-83">event loop </tspan><tspan font-size="16" x="2.37201" y="-62">(</tspan><tspan font-size="16" x="10.372" y="-62">이벤트</tspan><tspan font-size="16" x="66.372" y="-62">루프</tspan><tspan font-size="16" x="98.372" y="-62">)</tspan></text><g clip-path="url(#clip1)"><g clip-path="url(#clip2)"><g clip-path="url(#clip3)"><path d="M48.2917 26.9167 64.125 26.9167 64.125 11.0833 62.5417 11.0833 62.5417 23.503C62.5417 23.507 62.5385 23.5101 62.5345 23.5101 62.5306 23.5101 62.5274 23.507 62.5274 23.503 54.5198 9.95204 37.0431 5.45823 23.4921 13.4659 9.94112 21.4735 5.44733 38.9502 13.4549 52.5012 21.4626 66.0522 38.9393 70.546 52.4903 62.5383 54.309 61.4636 56.0027 60.1899 57.5399 58.7409L56.453 57.589C45.6359 67.7911 28.5965 67.2927 18.3944 56.4757 8.19217 45.6587 8.69068 28.6193 19.5077 18.4171 30.3247 8.21497 47.3641 8.7134 57.5663 19.5304 59.2038 21.2667 60.6033 23.2131 61.7278 25.3183 61.7301 25.3221 61.7287 25.3269 61.7249 25.3291 61.7236 25.3299 61.7222 25.3302 61.7207 25.3302L48.2917 25.3302Z" transform="matrix(1.01316 0 0 1 284 437)"/></g></g></g><text font-family="KoPubWorldDotum,KoPubWorldDotum_MSFontService,sans-serif" font-weight="500" font-size="21" transform="translate(49.7969 383)">1.<tspan x="36" y="0">Call stack</tspan>에<tspan x="36" y="26">쌓임</tspan></text><rect x="207.5" y="208.5" width="190" height="218" stroke="#000000" stroke-width="1.33333" stroke-miterlimit="8" fill="#FFFFFF"/><text font-family="KoPubWorldDotum,KoPubWorldDotum_MSFontService,sans-serif" font-weight="500" font-size="24" transform="translate(250.923 242)">Call stack<tspan font-size="21" x="16.6733" y="31">(</tspan><tspan font-size="21" x="23.34" y="31">콜스택</tspan><tspan font-size="21" x="79.34" y="31">)</tspan></text><rect x="216.5" y="325.5" width="172" height="40" stroke="#000000" stroke-width="1.33333" stroke-miterlimit="8" fill="#DAE3F3"/><text font-family="NanumGothicCoding,NanumGothicCoding_MSFontService,sans-serif" font-weight="400" font-size="24" transform="translate(224.266 353)">set Timeout()</text><rect x="216.5" y="378.5" width="172" height="39" stroke="#000000" stroke-width="1.33333" stroke-miterlimit="8" fill="#DAE3F3"/><text font-family="NanumGothicCoding,NanumGothicCoding_MSFontService,sans-serif" font-weight="400" font-size="24" transform="translate(266.266 406)">main()<tspan font-family="KoPubWorldDotum,KoPubWorldDotum_MSFontService,sans-serif" font-weight="500" font-size="21" x="142.233" y="-171">2.</tspan><tspan font-family="KoPubWorldDotum,KoPubWorldDotum_MSFontService,sans-serif" font-weight="500" font-size="21" x="178.233" y="-171">setTimeout</tspan><tspan font-family="KoPubWorldDotum,KoPubWorldDotum_MSFontService,sans-serif" font-weight="500" font-size="21" x="293.399" y="-171">실행</tspan><tspan font-family="KoPubWorldDotum,KoPubWorldDotum_MSFontService,sans-serif" font-weight="500" font-size="21" x="336.899" y="-171">시</tspan><tspan font-family="KoPubWorldDotum,KoPubWorldDotum_MSFontService,sans-serif" font-weight="500" font-size="21" x="178.233" y="-145">callback </tspan><tspan font-family="KoPubWorldDotum,KoPubWorldDotum_MSFontService,sans-serif" font-weight="500" font-size="21" x="260.479" y="-145">함수</tspan><tspan font-family="KoPubWorldDotum,KoPubWorldDotum_MSFontService,sans-serif" font-weight="500" font-size="21" x="303.979" y="-145">run</tspan><tspan font-family="KoPubWorldDotum,KoPubWorldDotum_MSFontService,sans-serif" font-weight="500" font-size="21" x="335.313" y="-145">은</tspan><tspan font-family="KoPubWorldDotum,KoPubWorldDotum_MSFontService,sans-serif" font-weight="500" font-size="21" x="178.233" y="-119">background</tspan><tspan font-family="KoPubWorldDotum,KoPubWorldDotum_MSFontService,sans-serif" font-weight="500" font-size="21" x="288.859" y="-119">로</tspan><tspan font-family="KoPubWorldDotum,KoPubWorldDotum_MSFontService,sans-serif" font-weight="500" font-size="21" x="313.693" y="-119">이동</tspan><tspan font-family="KoPubWorldDotum,KoPubWorldDotum_MSFontService,sans-serif" font-weight="500" font-size="21" x="394.375" y="60">3.</tspan><tspan font-family="KoPubWorldDotum,KoPubWorldDotum_MSFontService,sans-serif" font-weight="500" font-size="21" x="430.375" y="60">3</tspan><tspan font-family="KoPubWorldDotum,KoPubWorldDotum_MSFontService,sans-serif" font-weight="500" font-size="21" x="442.375" y="60">초</tspan><tspan font-family="KoPubWorldDotum,KoPubWorldDotum_MSFontService,sans-serif" font-weight="500" font-size="21" x="467.208" y="60">후</tspan><tspan font-family="KoPubWorldDotum,KoPubWorldDotum_MSFontService,sans-serif" font-weight="500" font-size="21" x="492.042" y="60">함수</tspan><tspan font-family="KoPubWorldDotum,KoPubWorldDotum_MSFontService,sans-serif" font-weight="500" font-size="21" x="535.542" y="60">run</tspan><tspan font-family="KoPubWorldDotum,KoPubWorldDotum_MSFontService,sans-serif" font-weight="500" font-size="21" x="566.875" y="60">을</tspan><tspan font-family="KoPubWorldDotum,KoPubWorldDotum_MSFontService,sans-serif" font-weight="500" font-size="21" x="430.375" y="86">task queue</tspan><tspan font-family="KoPubWorldDotum,KoPubWorldDotum_MSFontService,sans-serif" font-weight="500" font-size="21" x="536.308" y="86">로</tspan><tspan font-family="KoPubWorldDotum,KoPubWorldDotum_MSFontService,sans-serif" font-weight="500" font-size="21" x="561.142" y="86">보냄</tspan></text><path d="M1.65873-2.49972 265.557 172.614 262.239 177.613-1.65873 2.49972ZM266.374 165.955 276.396 183.407 256.422 180.954Z" fill="#00B050" transform="matrix(-1 0 0 1 765.396 365)"/><text font-family="KoPubWorldDotum,KoPubWorldDotum_MSFontService,sans-serif" font-weight="500" font-size="24" transform="translate(725.775 544)">Task queue<tspan font-size="21" x="14.24" y="26">(</tspan><tspan font-size="21" x="20.9066" y="26">태스크</tspan><tspan font-size="21" x="83.0733" y="26">큐</tspan><tspan font-size="21" x="101.74" y="26">)</tspan></text><path d="M63.5001 446.5 177.25 446.5 177.25 446.5 226 446.5 258.5 446.5 258.5 471.5 282.752 471.325 258.5 509 258.5 596.5 226 596.5 177.25 596.5 177.25 596.5 63.5001 596.5 63.5001 509 63.5001 471.5 63.5001 471.5Z" stroke="#2F528F" stroke-width="1.33333" stroke-miterlimit="8" fill="#F2F2F2" fill-rule="evenodd"/><text font-family="KoPubWorldDotum,KoPubWorldDotum_MSFontService,sans-serif" font-weight="500" font-size="21" transform="translate(72.6176 474)">event loop<tspan x="99.8133" y="0">는</tspan><tspan x="0" y="26">call stack</tspan>이<tspan x="112.967" y="26">비었을</tspan><tspan x="0" y="52">때</tspan><tspan x="18.6667" y="52">, task queue</tspan>에<tspan x="0" y="77">대기하는</tspan><tspan x="80.8333" y="77">callback</tspan><tspan x="0" y="103">함수를</tspan><tspan x="62.1667" y="103">실행</tspan></text><path d="M388 342 664.233 342 664.233 348 388 348ZM661.233 336 679.233 345 661.233 354Z" fill="#00B050"/></g></svg>