<svg width="962" height="578" xmlns="http://www.w3.org/2000/svg" xmlns:xlink="http://www.w3.org/1999/xlink" overflow="hidden"><defs><clipPath id="clip0"><rect x="-1" y="71" width="962" height="578"/></clipPath><clipPath id="clip1"><rect x="165" y="167" width="630" height="386"/></clipPath><clipPath id="clip2"><rect x="165" y="167" width="630" height="386"/></clipPath><clipPath id="clip3"><rect x="165" y="167" width="630" height="386"/></clipPath><clipPath id="clip4"><path d="M393.977 256.172 334.035 290.817C331.79 292.114 330.412 294.507 330.412 297.095L330.412 366.433C330.412 369.022 331.79 371.414 334.035 372.711L393.981 407.383C396.222 408.675 398.985 408.675 401.223 407.383L461.159 372.711C463.393 371.414 464.773 369.021 464.773 366.433L464.773 297.095C464.773 294.507 463.393 292.114 461.145 290.817L401.217 256.172C400.093 255.527 398.841 255.203 397.589 255.203 396.337 255.203 395.085 255.527 393.961 256.172"/></clipPath><linearGradient x1="386.955" y1="309.608" x2="300.356" y2="486.27" gradientUnits="userSpaceOnUse" spreadMethod="pad" id="fill5"><stop offset="0" stop-color="#3E863D"/><stop offset="0.3" stop-color="#3E863D"/><stop offset="0.5" stop-color="#55934F"/><stop offset="0.8" stop-color="#5AAD45"/><stop offset="1" stop-color="#5AAD45"/></linearGradient><clipPath id="clip6"><path d="M331.898 370.836C332.471 371.581 333.188 372.226 334.032 372.711L385.451 402.452 394.017 407.381C395.297 408.122 396.757 408.436 398.191 408.329 398.669 408.29 399.147 408.201 399.614 408.068L462.834 292.152C462.35 291.625 461.784 291.184 461.149 290.813L421.9 268.117 401.153 256.164C400.564 255.822 399.925 255.58 399.275 255.409Z"/></clipPath><linearGradient x1="265.328" y1="457.257" x2="423.065" y2="340.708" gradientUnits="userSpaceOnUse" spreadMethod="pad" id="fill7"><stop offset="0" stop-color="#3E863D"/><stop offset="0.57" stop-color="#3E863D"/><stop offset="0.72" stop-color="#619857"/><stop offset="1" stop-color="#76AC64"/></linearGradient><clipPath id="clip8"><path d="M396.874 255.243C395.868 255.343 394.885 255.657 393.978 256.172L334.207 290.718 398.659 408.272C399.556 408.144 400.438 407.845 401.234 407.383L461.176 372.711C463.026 371.637 464.292 369.819 464.677 367.758L398.972 255.362C398.488 255.266 398.005 255.216 397.507 255.216 397.308 255.216 397.108 255.226 396.909 255.245"/></clipPath><linearGradient x1="280.362" y1="397.886" x2="410.788" y2="397.886" gradientUnits="userSpaceOnUse" spreadMethod="pad" id="fill9"><stop offset="0" stop-color="#6BBF47"/><stop offset="0.16" stop-color="#6BBF47"/><stop offset="0.38" stop-color="#79B461"/><stop offset="0.47" stop-color="#75AC64"/><stop offset="0.7" stop-color="#659E5A"/><stop offset="0.9" stop-color="#3E863D"/><stop offset="1" stop-color="#3E863D"/></linearGradient></defs><g clip-path="url(#clip0)" transform="translate(1 -71)"><rect x="0" y="72" width="960" height="576" fill="#FFFFFF"/><g clip-path="url(#clip1)"><g clip-path="url(#clip2)"><g clip-path="url(#clip3)"><path d="M311.088 385.476C309.011 385.476 306.948 384.931 305.127 383.882L286.151 372.648C283.317 371.063 284.7 370.503 285.635 370.18 289.414 368.856 290.18 368.558 294.214 366.267 294.638 366.025 295.193 366.11 295.627 366.367L310.205 375.017C310.731 375.302 311.478 375.302 311.966 375.017L368.807 342.208C369.333 341.909 369.674 341.297 369.674 340.671L369.674 275.08C369.674 274.426 369.333 273.843 368.795 273.515L311.978 240.734C311.451 240.421 310.754 240.421 310.228 240.734L253.421 273.515C252.871 273.828 252.521 274.44 252.521 275.066L252.521 340.657C252.521 341.283 252.862 341.88 253.403 342.179L268.968 351.171C277.419 355.397 282.584 350.417 282.584 345.409L282.584 280.672C282.584 279.747 283.31 279.036 284.235 279.036L291.434 279.036C292.33 279.036 293.07 279.747 293.07 280.672L293.07 345.437C293.07 356.706 286.924 363.179 276.239 363.179 272.952 363.179 270.362 363.179 263.135 359.622L248.224 351.029C244.539 348.895 242.262 344.911 242.262 340.657L242.262 275.066C242.262 270.798 244.539 266.814 248.224 264.708L305.121 231.885C308.721 229.85 313.501 229.85 317.073 231.885L373.899 264.723C377.57 266.842 379.86 270.812 379.86 275.08L379.86 340.671C379.86 344.925 377.57 348.895 373.899 351.029L317.073 383.853C315.251 384.905 313.188 385.446 311.083 385.446" fill="#689F63" transform="matrix(1 0 0 1.00136 165.301 167)"/><path d="M328.646 340.28C303.775 340.28 298.561 328.863 298.561 319.288 298.561 318.377 299.295 317.652 300.207 317.652L307.548 317.652C308.359 317.652 309.042 318.242 309.17 319.043 310.28 326.524 313.581 330.297 328.62 330.297 340.6 330.297 345.693 327.591 345.693 321.239 345.693 317.582 344.242 314.864 325.632 313.043 310.067 311.507 300.449 308.078 300.449 295.628 300.449 284.161 310.124 277.331 326.329 277.331 344.527 277.331 353.547 283.648 354.685 297.222 354.728 297.691 354.557 298.147 354.244 298.488 353.931 298.815 353.49 299.015 353.035 299.015L345.651 299.015C344.882 299.015 344.214 298.474 344.057 297.734 342.279 289.866 337.982 287.348 326.301 287.348 313.225 287.348 311.703 291.901 311.703 295.315 311.703 299.456 313.496 300.665 331.138 302.998 348.61 305.318 356.905 308.59 356.905 320.869 356.905 333.247 346.576 340.347 328.563 340.347M397.796 270.786 399.702 270.786C401.268 270.786 401.566 269.691 401.566 269.051 401.566 267.372 400.414 267.372 399.774 267.372L397.81 267.372ZM395.477 265.408 399.702 265.408C401.154 265.408 403.999 265.408 403.999 268.652 403.999 270.915 402.548 271.384 401.68 271.669 403.373 271.782 403.487 272.892 403.715 274.457 403.829 275.439 404.014 277.132 404.355 277.701L401.751 277.701C401.68 277.132 401.282 274.002 401.282 273.831 401.111 273.134 400.869 272.793 400.001 272.793L397.853 272.793 397.853 277.715 395.477 277.715ZM390.397 271.526C390.397 276.62 394.509 280.746 399.56 280.746 404.654 280.746 408.766 276.535 408.766 271.526 408.766 266.419 404.597 262.364 399.546 262.364 394.566 262.364 390.383 266.362 390.383 271.512M410.53 271.555C410.53 277.587 405.593 282.51 399.574 282.51 393.599 282.51 388.619 277.644 388.619 271.555 388.619 265.351 393.712 260.599 399.574 260.599 405.479 260.599 410.516 265.366 410.516 271.555" fill="#689F63" transform="matrix(1 0 0 1.00136 165.301 167)"/><path d="M135.074 128.833C135.074 126.216 133.694 123.811 131.434 122.509L71.1707 87.8358C70.1534 87.2383 69.0138 86.9252 67.8585 86.8826L67.2353 86.8826C66.08 86.9252 64.9403 87.2383 63.906 87.8358L3.64518 122.509C1.40002 123.818 0 126.223 0 128.841L0.132319 222.232C0.132319 223.527 0.80103 224.737 1.93926 225.377 3.04903 226.06 4.44337 226.06 5.55314 225.377L41.3789 204.86C43.6412 203.514 45.0213 201.135 45.0213 198.543L45.0213 154.913C45.0213 152.309 46.4014 149.905 48.6565 148.61L63.9088 139.826C65.0413 139.171 66.2849 138.847 67.5511 138.847 68.7975 138.847 70.0695 139.169 71.1707 139.825L86.4159 148.606C88.6724 149.901 90.0582 152.305 90.0582 154.909L90.0582 198.536C90.0582 201.125 91.4568 203.516 93.7077 204.853L129.511 225.355C130.635 226.024 132.033 226.024 133.153 225.355 134.257 224.715 134.957 223.506 134.957 222.211ZM419.444 177.459C419.444 178.109 419.098 178.711 418.533 179.032L397.834 190.964C397.272 191.287 396.578 191.287 396.017 190.964L375.316 179.032C374.747 178.709 374.405 178.107 374.405 177.459L374.405 153.562C374.405 152.91 374.747 152.309 375.302 151.982L395.989 140.031C396.558 139.704 397.255 139.704 397.824 140.031L418.526 151.982C419.095 152.309 419.437 152.91 419.437 153.562ZM425.035 0.460983C423.906-0.167889 422.531-0.150816 421.416 0.499399 420.306 1.15388 419.62 2.34902 419.62 3.64376L419.62 96.125C419.62 97.0356 419.136 97.875 418.348 98.3303 417.566 98.7856 416.591 98.7856 415.801 98.3303L400.706 89.6357C398.457 88.3352 395.689 88.3352 393.432 89.6357L333.149 124.427C330.896 125.722 329.506 128.126 329.506 130.716L329.506 200.319C329.506 202.922 330.896 205.313 333.149 206.622L393.432 241.437C395.683 242.732 398.455 242.732 400.713 241.437L460.996 206.607C463.244 205.298 464.638 202.908 464.638 200.304L464.638 26.8381C464.638 24.1974 463.201 21.7687 460.897 20.4782ZM625.781 152.933C628.02 151.632 629.399 149.231 629.399 146.641L629.399 129.773C629.399 127.177 628.019 124.783 625.775 123.477L565.876 88.7037C563.613 87.3948 560.839 87.3948 558.577 88.7037L498.307 123.491C496.045 124.8 494.665 127.19 494.665 129.794L494.665 199.368C494.665 201.986 496.074 204.405 498.336 205.7L558.221 239.832C560.426 241.099 563.13 241.113 565.363 239.875L601.588 219.743C602.726 219.102 603.451 217.893 603.451 216.584 603.451 215.275 602.754 214.051 601.616 213.411L540.977 178.61C539.839 177.969 539.141 176.76 539.141 175.465L539.141 153.64C539.141 152.337 539.824 151.136 540.963 150.487L559.829 139.603C560.953 138.948 562.333 138.948 563.457 139.603L582.337 150.487C583.461 151.127 584.158 152.337 584.158 153.631L584.158 170.79C584.158 172.085 584.856 173.294 585.98 173.949 587.104 174.589 588.498 174.589 589.622 173.934Z" fill="#333333" fill-rule="evenodd" transform="matrix(1 0 0 1.00136 165.301 167)"/><path d="M561.344 149.677C561.771 149.425 562.306 149.425 562.738 149.677L574.306 156.35C574.738 156.601 575.003 157.062 575.003 157.56L575.003 170.92C575.003 171.418 574.738 171.878 574.306 172.129L562.738 178.802C562.306 179.054 561.771 179.054 561.344 178.802L549.784 172.129C549.343 171.878 549.072 171.418 549.072 170.92L549.072 157.56C549.072 157.062 549.329 156.601 549.77 156.35Z" fill="#689F63" fill-rule="evenodd" transform="matrix(1 0 0 1.00136 165.301 167)"/><g clip-path="url(#clip4)"><path d="M471.459 351.134 302.553 268.342 215.948 445.015 384.85 527.812Z" fill="url(#fill5)" transform="matrix(1 0 0 1.00136 53.8877 -66.6781)"/></g><g clip-path="url(#clip6)"><path d="M204.981 375.622 324.246 537.041 481.977 420.506 362.704 259.091Z" fill="url(#fill7)" transform="matrix(1 0 0 1.00136 53.8877 -66.6781)"/></g><g clip-path="url(#clip8)"><path d="M280.318 321.456 280.318 474.306 410.763 474.306 410.763 321.456Z" fill="url(#fill9)" transform="matrix(1 0 0 1.00136 53.8877 -66.6781)"/></g></g></g></g></g></svg>